<mxfile host="Electron" agent="Mozilla/5.0 (X11; Linux x86_64) AppleWebKit/537.36 (KHTML, like Gecko) draw.io/26.0.9 Chrome/128.0.6613.186 Electron/32.3.0 Safari/537.36" version="26.0.9" pages="5">
  <diagram name="1" id="AS0sLA-gUJZffBNNmKCp">
    <mxGraphModel dx="830" dy="492" grid="1" gridSize="10" guides="1" tooltips="1" connect="1" arrows="1" fold="1" page="1" pageScale="1" pageWidth="400" pageHeight="360" math="0" shadow="0">
      <root>
        <mxCell id="YqY_Bc5etBFNPCDuBgaJ-0" />
        <mxCell id="YqY_Bc5etBFNPCDuBgaJ-1" parent="YqY_Bc5etBFNPCDuBgaJ-0" />
        <mxCell id="AghPVLp6tl62Hx-hMCT9-1" value="1000" style="text;html=1;align=center;verticalAlign=middle;whiteSpace=wrap;rounded=0;fillColor=#dae8fc;strokeColor=#6c8ebf;fontSize=14;fontColor=#333333;" parent="YqY_Bc5etBFNPCDuBgaJ-1" vertex="1">
          <mxGeometry x="260" y="40" width="40" height="20" as="geometry" />
        </mxCell>
        <mxCell id="AghPVLp6tl62Hx-hMCT9-2" value="romans" style="text;html=1;align=center;verticalAlign=middle;whiteSpace=wrap;rounded=0;fontSize=10;" parent="YqY_Bc5etBFNPCDuBgaJ-1" vertex="1">
          <mxGeometry x="260" y="300" width="80" height="20" as="geometry" />
        </mxCell>
        <mxCell id="UF_0MwWMYEYdy6iJfK7G-25" value="900" style="text;html=1;align=center;verticalAlign=middle;whiteSpace=wrap;rounded=0;fillColor=#f5f5f5;strokeColor=#666666;fontSize=14;fontColor=#333333;" vertex="1" parent="YqY_Bc5etBFNPCDuBgaJ-1">
          <mxGeometry x="260" y="60" width="40" height="20" as="geometry" />
        </mxCell>
        <mxCell id="UF_0MwWMYEYdy6iJfK7G-26" value="500" style="text;html=1;align=center;verticalAlign=middle;whiteSpace=wrap;rounded=0;fillColor=#f5f5f5;strokeColor=#666666;fontSize=14;fontColor=#333333;" vertex="1" parent="YqY_Bc5etBFNPCDuBgaJ-1">
          <mxGeometry x="260" y="80" width="40" height="20" as="geometry" />
        </mxCell>
        <mxCell id="UF_0MwWMYEYdy6iJfK7G-27" value="400" style="text;html=1;align=center;verticalAlign=middle;whiteSpace=wrap;rounded=0;fillColor=#f5f5f5;strokeColor=#666666;fontSize=14;fontColor=#333333;" vertex="1" parent="YqY_Bc5etBFNPCDuBgaJ-1">
          <mxGeometry x="260" y="100" width="40" height="20" as="geometry" />
        </mxCell>
        <mxCell id="UF_0MwWMYEYdy6iJfK7G-28" value="100" style="text;html=1;align=center;verticalAlign=middle;whiteSpace=wrap;rounded=0;fillColor=#f5f5f5;strokeColor=#666666;fontSize=14;fontColor=#333333;" vertex="1" parent="YqY_Bc5etBFNPCDuBgaJ-1">
          <mxGeometry x="260" y="120" width="40" height="20" as="geometry" />
        </mxCell>
        <mxCell id="UF_0MwWMYEYdy6iJfK7G-29" value="90" style="text;html=1;align=center;verticalAlign=middle;whiteSpace=wrap;rounded=0;fillColor=#f5f5f5;strokeColor=#666666;fontSize=14;fontColor=#333333;" vertex="1" parent="YqY_Bc5etBFNPCDuBgaJ-1">
          <mxGeometry x="260" y="140" width="40" height="20" as="geometry" />
        </mxCell>
        <mxCell id="UF_0MwWMYEYdy6iJfK7G-30" value="50" style="text;html=1;align=center;verticalAlign=middle;whiteSpace=wrap;rounded=0;fillColor=#f5f5f5;strokeColor=#666666;fontSize=14;fontColor=#333333;" vertex="1" parent="YqY_Bc5etBFNPCDuBgaJ-1">
          <mxGeometry x="260" y="160" width="40" height="20" as="geometry" />
        </mxCell>
        <mxCell id="UF_0MwWMYEYdy6iJfK7G-31" value="40" style="text;html=1;align=center;verticalAlign=middle;whiteSpace=wrap;rounded=0;fillColor=#f5f5f5;strokeColor=#666666;fontSize=14;fontColor=#333333;" vertex="1" parent="YqY_Bc5etBFNPCDuBgaJ-1">
          <mxGeometry x="260" y="180" width="40" height="20" as="geometry" />
        </mxCell>
        <mxCell id="UF_0MwWMYEYdy6iJfK7G-32" value="10" style="text;html=1;align=center;verticalAlign=middle;whiteSpace=wrap;rounded=0;fillColor=#f5f5f5;strokeColor=#666666;fontSize=14;fontColor=#333333;" vertex="1" parent="YqY_Bc5etBFNPCDuBgaJ-1">
          <mxGeometry x="260" y="200" width="40" height="20" as="geometry" />
        </mxCell>
        <mxCell id="UF_0MwWMYEYdy6iJfK7G-33" value="9" style="text;html=1;align=center;verticalAlign=middle;whiteSpace=wrap;rounded=0;fillColor=#f5f5f5;strokeColor=#666666;fontSize=14;fontColor=#333333;" vertex="1" parent="YqY_Bc5etBFNPCDuBgaJ-1">
          <mxGeometry x="260" y="220" width="40" height="20" as="geometry" />
        </mxCell>
        <mxCell id="UF_0MwWMYEYdy6iJfK7G-34" value="5" style="text;html=1;align=center;verticalAlign=middle;whiteSpace=wrap;rounded=0;fillColor=#f5f5f5;strokeColor=#666666;fontSize=14;fontColor=#333333;" vertex="1" parent="YqY_Bc5etBFNPCDuBgaJ-1">
          <mxGeometry x="260" y="240" width="40" height="20" as="geometry" />
        </mxCell>
        <mxCell id="UF_0MwWMYEYdy6iJfK7G-35" value="4" style="text;html=1;align=center;verticalAlign=middle;whiteSpace=wrap;rounded=0;fillColor=#f5f5f5;strokeColor=#666666;fontSize=14;fontColor=#333333;" vertex="1" parent="YqY_Bc5etBFNPCDuBgaJ-1">
          <mxGeometry x="260" y="260" width="40" height="20" as="geometry" />
        </mxCell>
        <mxCell id="UF_0MwWMYEYdy6iJfK7G-63" style="edgeStyle=orthogonalEdgeStyle;rounded=0;orthogonalLoop=1;jettySize=auto;html=1;exitX=1;exitY=0.5;exitDx=0;exitDy=0;entryX=1;entryY=0.5;entryDx=0;entryDy=0;fillColor=#d5e8d4;strokeColor=#82b366;" edge="1" parent="YqY_Bc5etBFNPCDuBgaJ-1" source="UF_0MwWMYEYdy6iJfK7G-36" target="UF_0MwWMYEYdy6iJfK7G-61">
          <mxGeometry relative="1" as="geometry">
            <Array as="points">
              <mxPoint x="360" y="50" />
              <mxPoint x="360" y="320" />
              <mxPoint x="120" y="320" />
              <mxPoint x="120" y="220" />
            </Array>
          </mxGeometry>
        </mxCell>
        <mxCell id="UF_0MwWMYEYdy6iJfK7G-36" value="M" style="text;html=1;align=center;verticalAlign=middle;whiteSpace=wrap;rounded=0;fillColor=#d5e8d4;strokeColor=#82b366;fontSize=14;fontColor=#333333;" vertex="1" parent="YqY_Bc5etBFNPCDuBgaJ-1">
          <mxGeometry x="300" y="40" width="40" height="20" as="geometry" />
        </mxCell>
        <mxCell id="UF_0MwWMYEYdy6iJfK7G-37" value="CM" style="text;html=1;align=center;verticalAlign=middle;whiteSpace=wrap;rounded=0;fillColor=#f5f5f5;strokeColor=#666666;fontSize=14;fontColor=#333333;" vertex="1" parent="YqY_Bc5etBFNPCDuBgaJ-1">
          <mxGeometry x="300" y="60" width="40" height="20" as="geometry" />
        </mxCell>
        <mxCell id="UF_0MwWMYEYdy6iJfK7G-38" value="D" style="text;html=1;align=center;verticalAlign=middle;whiteSpace=wrap;rounded=0;fillColor=#f5f5f5;strokeColor=#666666;fontSize=14;fontColor=#333333;" vertex="1" parent="YqY_Bc5etBFNPCDuBgaJ-1">
          <mxGeometry x="300" y="80" width="40" height="20" as="geometry" />
        </mxCell>
        <mxCell id="UF_0MwWMYEYdy6iJfK7G-39" value="CD" style="text;html=1;align=center;verticalAlign=middle;whiteSpace=wrap;rounded=0;fillColor=#f5f5f5;strokeColor=#666666;fontSize=14;fontColor=#333333;" vertex="1" parent="YqY_Bc5etBFNPCDuBgaJ-1">
          <mxGeometry x="300" y="100" width="40" height="20" as="geometry" />
        </mxCell>
        <mxCell id="UF_0MwWMYEYdy6iJfK7G-40" value="C" style="text;html=1;align=center;verticalAlign=middle;whiteSpace=wrap;rounded=0;fillColor=#f5f5f5;strokeColor=#666666;fontSize=14;fontColor=#333333;" vertex="1" parent="YqY_Bc5etBFNPCDuBgaJ-1">
          <mxGeometry x="300" y="120" width="40" height="20" as="geometry" />
        </mxCell>
        <mxCell id="UF_0MwWMYEYdy6iJfK7G-41" value="XC" style="text;html=1;align=center;verticalAlign=middle;whiteSpace=wrap;rounded=0;fillColor=#f5f5f5;strokeColor=#666666;fontSize=14;fontColor=#333333;" vertex="1" parent="YqY_Bc5etBFNPCDuBgaJ-1">
          <mxGeometry x="300" y="140" width="40" height="20" as="geometry" />
        </mxCell>
        <mxCell id="UF_0MwWMYEYdy6iJfK7G-42" value="L" style="text;html=1;align=center;verticalAlign=middle;whiteSpace=wrap;rounded=0;fillColor=#f5f5f5;strokeColor=#666666;fontSize=14;fontColor=#333333;" vertex="1" parent="YqY_Bc5etBFNPCDuBgaJ-1">
          <mxGeometry x="300" y="160" width="40" height="20" as="geometry" />
        </mxCell>
        <mxCell id="UF_0MwWMYEYdy6iJfK7G-43" value="XL" style="text;html=1;align=center;verticalAlign=middle;whiteSpace=wrap;rounded=0;fillColor=#f5f5f5;strokeColor=#666666;fontSize=14;fontColor=#333333;" vertex="1" parent="YqY_Bc5etBFNPCDuBgaJ-1">
          <mxGeometry x="300" y="180" width="40" height="20" as="geometry" />
        </mxCell>
        <mxCell id="UF_0MwWMYEYdy6iJfK7G-44" value="X" style="text;html=1;align=center;verticalAlign=middle;whiteSpace=wrap;rounded=0;fillColor=#f5f5f5;strokeColor=#666666;fontSize=14;fontColor=#333333;" vertex="1" parent="YqY_Bc5etBFNPCDuBgaJ-1">
          <mxGeometry x="300" y="200" width="40" height="20" as="geometry" />
        </mxCell>
        <mxCell id="UF_0MwWMYEYdy6iJfK7G-45" value="IX" style="text;html=1;align=center;verticalAlign=middle;whiteSpace=wrap;rounded=0;fillColor=#f5f5f5;strokeColor=#666666;fontSize=14;fontColor=#333333;" vertex="1" parent="YqY_Bc5etBFNPCDuBgaJ-1">
          <mxGeometry x="300" y="220" width="40" height="20" as="geometry" />
        </mxCell>
        <mxCell id="UF_0MwWMYEYdy6iJfK7G-46" value="V" style="text;html=1;align=center;verticalAlign=middle;whiteSpace=wrap;rounded=0;fillColor=#f5f5f5;strokeColor=#666666;fontSize=14;fontColor=#333333;" vertex="1" parent="YqY_Bc5etBFNPCDuBgaJ-1">
          <mxGeometry x="300" y="240" width="40" height="20" as="geometry" />
        </mxCell>
        <mxCell id="UF_0MwWMYEYdy6iJfK7G-47" value="IV" style="text;html=1;align=center;verticalAlign=middle;whiteSpace=wrap;rounded=0;fillColor=#f5f5f5;strokeColor=#666666;fontSize=14;fontColor=#333333;" vertex="1" parent="YqY_Bc5etBFNPCDuBgaJ-1">
          <mxGeometry x="300" y="260" width="40" height="20" as="geometry" />
        </mxCell>
        <mxCell id="UF_0MwWMYEYdy6iJfK7G-48" value="1" style="text;html=1;align=center;verticalAlign=middle;whiteSpace=wrap;rounded=0;fillColor=#f5f5f5;strokeColor=#666666;fontSize=14;fontColor=#333333;" vertex="1" parent="YqY_Bc5etBFNPCDuBgaJ-1">
          <mxGeometry x="260" y="280" width="40" height="20" as="geometry" />
        </mxCell>
        <mxCell id="UF_0MwWMYEYdy6iJfK7G-50" value="I" style="text;html=1;align=center;verticalAlign=middle;whiteSpace=wrap;rounded=0;fillColor=#f5f5f5;strokeColor=#666666;fontSize=14;fontColor=#333333;" vertex="1" parent="YqY_Bc5etBFNPCDuBgaJ-1">
          <mxGeometry x="300" y="280" width="40" height="20" as="geometry" />
        </mxCell>
        <mxCell id="UF_0MwWMYEYdy6iJfK7G-59" style="edgeStyle=orthogonalEdgeStyle;rounded=0;orthogonalLoop=1;jettySize=auto;html=1;exitX=0.5;exitY=1;exitDx=0;exitDy=0;entryX=0.5;entryY=0;entryDx=0;entryDy=0;fillColor=#f5f5f5;strokeColor=#666666;" edge="1" parent="YqY_Bc5etBFNPCDuBgaJ-1" source="UF_0MwWMYEYdy6iJfK7G-52" target="UF_0MwWMYEYdy6iJfK7G-57">
          <mxGeometry relative="1" as="geometry" />
        </mxCell>
        <mxCell id="UF_0MwWMYEYdy6iJfK7G-52" value="3" style="text;html=1;align=center;verticalAlign=middle;whiteSpace=wrap;rounded=0;fillColor=#f5f5f5;strokeColor=#666666;fontSize=14;fontColor=#333333;" vertex="1" parent="YqY_Bc5etBFNPCDuBgaJ-1">
          <mxGeometry x="60" y="40" width="40" height="40" as="geometry" />
        </mxCell>
        <mxCell id="UF_0MwWMYEYdy6iJfK7G-53" value="7" style="text;html=1;align=center;verticalAlign=middle;whiteSpace=wrap;rounded=0;fillColor=#f5f5f5;strokeColor=#666666;fontSize=14;fontColor=#333333;" vertex="1" parent="YqY_Bc5etBFNPCDuBgaJ-1">
          <mxGeometry x="100" y="40" width="40" height="40" as="geometry" />
        </mxCell>
        <mxCell id="UF_0MwWMYEYdy6iJfK7G-54" value="4" style="text;html=1;align=center;verticalAlign=middle;whiteSpace=wrap;rounded=0;fillColor=#f5f5f5;strokeColor=#666666;fontSize=14;fontColor=#333333;" vertex="1" parent="YqY_Bc5etBFNPCDuBgaJ-1">
          <mxGeometry x="140" y="40" width="40" height="40" as="geometry" />
        </mxCell>
        <mxCell id="UF_0MwWMYEYdy6iJfK7G-55" value="9" style="text;html=1;align=center;verticalAlign=middle;whiteSpace=wrap;rounded=0;fillColor=#f5f5f5;strokeColor=#666666;fontSize=14;fontColor=#333333;" vertex="1" parent="YqY_Bc5etBFNPCDuBgaJ-1">
          <mxGeometry x="180" y="40" width="40" height="40" as="geometry" />
        </mxCell>
        <mxCell id="UF_0MwWMYEYdy6iJfK7G-56" value="num" style="text;html=1;align=center;verticalAlign=middle;whiteSpace=wrap;rounded=0;fontSize=10;" vertex="1" parent="YqY_Bc5etBFNPCDuBgaJ-1">
          <mxGeometry x="60" y="80" width="160" height="20" as="geometry" />
        </mxCell>
        <mxCell id="UF_0MwWMYEYdy6iJfK7G-60" style="edgeStyle=orthogonalEdgeStyle;rounded=0;orthogonalLoop=1;jettySize=auto;html=1;exitX=1;exitY=0.5;exitDx=0;exitDy=0;entryX=0;entryY=0.5;entryDx=0;entryDy=0;fillColor=#dae8fc;strokeColor=#6c8ebf;" edge="1" parent="YqY_Bc5etBFNPCDuBgaJ-1" source="UF_0MwWMYEYdy6iJfK7G-57" target="AghPVLp6tl62Hx-hMCT9-1">
          <mxGeometry relative="1" as="geometry">
            <Array as="points">
              <mxPoint x="240" y="140" />
              <mxPoint x="240" y="50" />
            </Array>
          </mxGeometry>
        </mxCell>
        <mxCell id="jFIiN_w6EYCGyR0IcjMc-0" value="3479 - 1000" style="edgeStyle=orthogonalEdgeStyle;rounded=0;orthogonalLoop=1;jettySize=auto;html=1;exitX=0;exitY=0.5;exitDx=0;exitDy=0;entryX=0;entryY=0.5;entryDx=0;entryDy=0;fillColor=#dae8fc;strokeColor=#6c8ebf;" edge="1" parent="YqY_Bc5etBFNPCDuBgaJ-1" source="UF_0MwWMYEYdy6iJfK7G-57" target="UF_0MwWMYEYdy6iJfK7G-52">
          <mxGeometry relative="1" as="geometry" />
        </mxCell>
        <mxCell id="UF_0MwWMYEYdy6iJfK7G-57" value="1000" style="text;html=1;align=center;verticalAlign=middle;whiteSpace=wrap;rounded=0;fillColor=#dae8fc;strokeColor=#6c8ebf;fontSize=14;fontColor=#333333;" vertex="1" parent="YqY_Bc5etBFNPCDuBgaJ-1">
          <mxGeometry x="60" y="120" width="40" height="40" as="geometry" />
        </mxCell>
        <mxCell id="UF_0MwWMYEYdy6iJfK7G-58" value="floor" style="text;html=1;align=center;verticalAlign=middle;whiteSpace=wrap;rounded=0;fontSize=10;" vertex="1" parent="YqY_Bc5etBFNPCDuBgaJ-1">
          <mxGeometry x="60" y="160" width="40" height="20" as="geometry" />
        </mxCell>
        <mxCell id="UF_0MwWMYEYdy6iJfK7G-61" value="M" style="text;html=1;align=center;verticalAlign=middle;whiteSpace=wrap;rounded=0;fillColor=#d5e8d4;strokeColor=#82b366;fontSize=14;fontColor=#333333;" vertex="1" parent="YqY_Bc5etBFNPCDuBgaJ-1">
          <mxGeometry x="60" y="200" width="40" height="40" as="geometry" />
        </mxCell>
        <mxCell id="UF_0MwWMYEYdy6iJfK7G-64" value="return" style="text;html=1;align=center;verticalAlign=middle;whiteSpace=wrap;rounded=0;fontSize=10;" vertex="1" parent="YqY_Bc5etBFNPCDuBgaJ-1">
          <mxGeometry x="60" y="240" width="40" height="20" as="geometry" />
        </mxCell>
      </root>
    </mxGraphModel>
  </diagram>
  <diagram name="2" id="eH7SXtpMic55Mvr0myCg">
    <mxGraphModel dx="988" dy="586" grid="1" gridSize="10" guides="1" tooltips="1" connect="1" arrows="1" fold="1" page="1" pageScale="1" pageWidth="400" pageHeight="360" math="0" shadow="0">
      <root>
        <mxCell id="EnVijCoMFNbLVISE0wcL-0" />
        <mxCell id="EnVijCoMFNbLVISE0wcL-1" parent="EnVijCoMFNbLVISE0wcL-0" />
        <mxCell id="EnVijCoMFNbLVISE0wcL-2" value="1000" style="text;html=1;align=center;verticalAlign=middle;whiteSpace=wrap;rounded=0;fillColor=#f5f5f5;strokeColor=#666666;fontSize=14;fontColor=#333333;" vertex="1" parent="EnVijCoMFNbLVISE0wcL-1">
          <mxGeometry x="260" y="40" width="40" height="20" as="geometry" />
        </mxCell>
        <mxCell id="EnVijCoMFNbLVISE0wcL-3" value="romans" style="text;html=1;align=center;verticalAlign=middle;whiteSpace=wrap;rounded=0;fontSize=10;" vertex="1" parent="EnVijCoMFNbLVISE0wcL-1">
          <mxGeometry x="260" y="300" width="80" height="20" as="geometry" />
        </mxCell>
        <mxCell id="EnVijCoMFNbLVISE0wcL-4" value="900" style="text;html=1;align=center;verticalAlign=middle;whiteSpace=wrap;rounded=0;fillColor=#f5f5f5;strokeColor=#666666;fontSize=14;fontColor=#333333;" vertex="1" parent="EnVijCoMFNbLVISE0wcL-1">
          <mxGeometry x="260" y="60" width="40" height="20" as="geometry" />
        </mxCell>
        <mxCell id="EnVijCoMFNbLVISE0wcL-5" value="500" style="text;html=1;align=center;verticalAlign=middle;whiteSpace=wrap;rounded=0;fillColor=#dae8fc;strokeColor=#6c8ebf;fontSize=14;fontColor=#333333;" vertex="1" parent="EnVijCoMFNbLVISE0wcL-1">
          <mxGeometry x="260" y="80" width="40" height="20" as="geometry" />
        </mxCell>
        <mxCell id="EnVijCoMFNbLVISE0wcL-6" value="400" style="text;html=1;align=center;verticalAlign=middle;whiteSpace=wrap;rounded=0;fillColor=#f5f5f5;strokeColor=#666666;fontSize=14;fontColor=#333333;" vertex="1" parent="EnVijCoMFNbLVISE0wcL-1">
          <mxGeometry x="260" y="100" width="40" height="20" as="geometry" />
        </mxCell>
        <mxCell id="EnVijCoMFNbLVISE0wcL-7" value="100" style="text;html=1;align=center;verticalAlign=middle;whiteSpace=wrap;rounded=0;fillColor=#f5f5f5;strokeColor=#666666;fontSize=14;fontColor=#333333;" vertex="1" parent="EnVijCoMFNbLVISE0wcL-1">
          <mxGeometry x="260" y="120" width="40" height="20" as="geometry" />
        </mxCell>
        <mxCell id="EnVijCoMFNbLVISE0wcL-8" value="90" style="text;html=1;align=center;verticalAlign=middle;whiteSpace=wrap;rounded=0;fillColor=#f5f5f5;strokeColor=#666666;fontSize=14;fontColor=#333333;" vertex="1" parent="EnVijCoMFNbLVISE0wcL-1">
          <mxGeometry x="260" y="140" width="40" height="20" as="geometry" />
        </mxCell>
        <mxCell id="EnVijCoMFNbLVISE0wcL-9" value="50" style="text;html=1;align=center;verticalAlign=middle;whiteSpace=wrap;rounded=0;fillColor=#f5f5f5;strokeColor=#666666;fontSize=14;fontColor=#333333;" vertex="1" parent="EnVijCoMFNbLVISE0wcL-1">
          <mxGeometry x="260" y="160" width="40" height="20" as="geometry" />
        </mxCell>
        <mxCell id="EnVijCoMFNbLVISE0wcL-10" value="40" style="text;html=1;align=center;verticalAlign=middle;whiteSpace=wrap;rounded=0;fillColor=#f5f5f5;strokeColor=#666666;fontSize=14;fontColor=#333333;" vertex="1" parent="EnVijCoMFNbLVISE0wcL-1">
          <mxGeometry x="260" y="180" width="40" height="20" as="geometry" />
        </mxCell>
        <mxCell id="EnVijCoMFNbLVISE0wcL-11" value="10" style="text;html=1;align=center;verticalAlign=middle;whiteSpace=wrap;rounded=0;fillColor=#f5f5f5;strokeColor=#666666;fontSize=14;fontColor=#333333;" vertex="1" parent="EnVijCoMFNbLVISE0wcL-1">
          <mxGeometry x="260" y="200" width="40" height="20" as="geometry" />
        </mxCell>
        <mxCell id="EnVijCoMFNbLVISE0wcL-12" value="9" style="text;html=1;align=center;verticalAlign=middle;whiteSpace=wrap;rounded=0;fillColor=#f5f5f5;strokeColor=#666666;fontSize=14;fontColor=#333333;" vertex="1" parent="EnVijCoMFNbLVISE0wcL-1">
          <mxGeometry x="260" y="220" width="40" height="20" as="geometry" />
        </mxCell>
        <mxCell id="EnVijCoMFNbLVISE0wcL-13" value="5" style="text;html=1;align=center;verticalAlign=middle;whiteSpace=wrap;rounded=0;fillColor=#f5f5f5;strokeColor=#666666;fontSize=14;fontColor=#333333;" vertex="1" parent="EnVijCoMFNbLVISE0wcL-1">
          <mxGeometry x="260" y="240" width="40" height="20" as="geometry" />
        </mxCell>
        <mxCell id="EnVijCoMFNbLVISE0wcL-14" value="4" style="text;html=1;align=center;verticalAlign=middle;whiteSpace=wrap;rounded=0;fillColor=#f5f5f5;strokeColor=#666666;fontSize=14;fontColor=#333333;" vertex="1" parent="EnVijCoMFNbLVISE0wcL-1">
          <mxGeometry x="260" y="260" width="40" height="20" as="geometry" />
        </mxCell>
        <mxCell id="EnVijCoMFNbLVISE0wcL-16" value="M" style="text;html=1;align=center;verticalAlign=middle;whiteSpace=wrap;rounded=0;fillColor=#f5f5f5;strokeColor=#666666;fontSize=14;fontColor=#333333;" vertex="1" parent="EnVijCoMFNbLVISE0wcL-1">
          <mxGeometry x="300" y="40" width="40" height="20" as="geometry" />
        </mxCell>
        <mxCell id="EnVijCoMFNbLVISE0wcL-17" value="CM" style="text;html=1;align=center;verticalAlign=middle;whiteSpace=wrap;rounded=0;fillColor=#f5f5f5;strokeColor=#666666;fontSize=14;fontColor=#333333;" vertex="1" parent="EnVijCoMFNbLVISE0wcL-1">
          <mxGeometry x="300" y="60" width="40" height="20" as="geometry" />
        </mxCell>
        <mxCell id="u4_d2mdpdZKIEXC9zYQh-0" style="edgeStyle=orthogonalEdgeStyle;rounded=0;orthogonalLoop=1;jettySize=auto;html=1;exitX=1;exitY=0.5;exitDx=0;exitDy=0;entryX=1;entryY=0.5;entryDx=0;entryDy=0;fillColor=#d5e8d4;strokeColor=#82b366;" edge="1" parent="EnVijCoMFNbLVISE0wcL-1" source="EnVijCoMFNbLVISE0wcL-18" target="95tknr4YAIFt2j-NvxlN-3">
          <mxGeometry relative="1" as="geometry">
            <Array as="points">
              <mxPoint x="360" y="90" />
              <mxPoint x="360" y="320" />
              <mxPoint x="240" y="320" />
              <mxPoint x="240" y="220" />
            </Array>
          </mxGeometry>
        </mxCell>
        <mxCell id="EnVijCoMFNbLVISE0wcL-18" value="D" style="text;html=1;align=center;verticalAlign=middle;whiteSpace=wrap;rounded=0;fillColor=#d5e8d4;strokeColor=#82b366;fontSize=14;fontColor=#333333;" vertex="1" parent="EnVijCoMFNbLVISE0wcL-1">
          <mxGeometry x="300" y="80" width="40" height="20" as="geometry" />
        </mxCell>
        <mxCell id="EnVijCoMFNbLVISE0wcL-19" value="CD" style="text;html=1;align=center;verticalAlign=middle;whiteSpace=wrap;rounded=0;fillColor=#f5f5f5;strokeColor=#666666;fontSize=14;fontColor=#333333;" vertex="1" parent="EnVijCoMFNbLVISE0wcL-1">
          <mxGeometry x="300" y="100" width="40" height="20" as="geometry" />
        </mxCell>
        <mxCell id="EnVijCoMFNbLVISE0wcL-20" value="C" style="text;html=1;align=center;verticalAlign=middle;whiteSpace=wrap;rounded=0;fillColor=#f5f5f5;strokeColor=#666666;fontSize=14;fontColor=#333333;" vertex="1" parent="EnVijCoMFNbLVISE0wcL-1">
          <mxGeometry x="300" y="120" width="40" height="20" as="geometry" />
        </mxCell>
        <mxCell id="EnVijCoMFNbLVISE0wcL-21" value="XC" style="text;html=1;align=center;verticalAlign=middle;whiteSpace=wrap;rounded=0;fillColor=#f5f5f5;strokeColor=#666666;fontSize=14;fontColor=#333333;" vertex="1" parent="EnVijCoMFNbLVISE0wcL-1">
          <mxGeometry x="300" y="140" width="40" height="20" as="geometry" />
        </mxCell>
        <mxCell id="EnVijCoMFNbLVISE0wcL-22" value="L" style="text;html=1;align=center;verticalAlign=middle;whiteSpace=wrap;rounded=0;fillColor=#f5f5f5;strokeColor=#666666;fontSize=14;fontColor=#333333;" vertex="1" parent="EnVijCoMFNbLVISE0wcL-1">
          <mxGeometry x="300" y="160" width="40" height="20" as="geometry" />
        </mxCell>
        <mxCell id="EnVijCoMFNbLVISE0wcL-23" value="XL" style="text;html=1;align=center;verticalAlign=middle;whiteSpace=wrap;rounded=0;fillColor=#f5f5f5;strokeColor=#666666;fontSize=14;fontColor=#333333;" vertex="1" parent="EnVijCoMFNbLVISE0wcL-1">
          <mxGeometry x="300" y="180" width="40" height="20" as="geometry" />
        </mxCell>
        <mxCell id="EnVijCoMFNbLVISE0wcL-24" value="X" style="text;html=1;align=center;verticalAlign=middle;whiteSpace=wrap;rounded=0;fillColor=#f5f5f5;strokeColor=#666666;fontSize=14;fontColor=#333333;" vertex="1" parent="EnVijCoMFNbLVISE0wcL-1">
          <mxGeometry x="300" y="200" width="40" height="20" as="geometry" />
        </mxCell>
        <mxCell id="EnVijCoMFNbLVISE0wcL-25" value="IX" style="text;html=1;align=center;verticalAlign=middle;whiteSpace=wrap;rounded=0;fillColor=#f5f5f5;strokeColor=#666666;fontSize=14;fontColor=#333333;" vertex="1" parent="EnVijCoMFNbLVISE0wcL-1">
          <mxGeometry x="300" y="220" width="40" height="20" as="geometry" />
        </mxCell>
        <mxCell id="EnVijCoMFNbLVISE0wcL-26" value="V" style="text;html=1;align=center;verticalAlign=middle;whiteSpace=wrap;rounded=0;fillColor=#f5f5f5;strokeColor=#666666;fontSize=14;fontColor=#333333;" vertex="1" parent="EnVijCoMFNbLVISE0wcL-1">
          <mxGeometry x="300" y="240" width="40" height="20" as="geometry" />
        </mxCell>
        <mxCell id="EnVijCoMFNbLVISE0wcL-27" value="IV" style="text;html=1;align=center;verticalAlign=middle;whiteSpace=wrap;rounded=0;fillColor=#f5f5f5;strokeColor=#666666;fontSize=14;fontColor=#333333;" vertex="1" parent="EnVijCoMFNbLVISE0wcL-1">
          <mxGeometry x="300" y="260" width="40" height="20" as="geometry" />
        </mxCell>
        <mxCell id="EnVijCoMFNbLVISE0wcL-28" value="1" style="text;html=1;align=center;verticalAlign=middle;whiteSpace=wrap;rounded=0;fillColor=#f5f5f5;strokeColor=#666666;fontSize=14;fontColor=#333333;" vertex="1" parent="EnVijCoMFNbLVISE0wcL-1">
          <mxGeometry x="260" y="280" width="40" height="20" as="geometry" />
        </mxCell>
        <mxCell id="EnVijCoMFNbLVISE0wcL-29" value="I" style="text;html=1;align=center;verticalAlign=middle;whiteSpace=wrap;rounded=0;fillColor=#f5f5f5;strokeColor=#666666;fontSize=14;fontColor=#333333;" vertex="1" parent="EnVijCoMFNbLVISE0wcL-1">
          <mxGeometry x="300" y="280" width="40" height="20" as="geometry" />
        </mxCell>
        <mxCell id="95tknr4YAIFt2j-NvxlN-0" style="edgeStyle=orthogonalEdgeStyle;rounded=0;orthogonalLoop=1;jettySize=auto;html=1;exitX=0.5;exitY=1;exitDx=0;exitDy=0;entryX=0.5;entryY=0;entryDx=0;entryDy=0;fillColor=#f5f5f5;strokeColor=#666666;" edge="1" parent="EnVijCoMFNbLVISE0wcL-1" source="EnVijCoMFNbLVISE0wcL-32" target="EnVijCoMFNbLVISE0wcL-37">
          <mxGeometry relative="1" as="geometry" />
        </mxCell>
        <mxCell id="EnVijCoMFNbLVISE0wcL-32" value="7" style="text;html=1;align=center;verticalAlign=middle;whiteSpace=wrap;rounded=0;fillColor=#f5f5f5;strokeColor=#666666;fontSize=14;fontColor=#333333;" vertex="1" parent="EnVijCoMFNbLVISE0wcL-1">
          <mxGeometry x="60" y="40" width="40" height="40" as="geometry" />
        </mxCell>
        <mxCell id="EnVijCoMFNbLVISE0wcL-33" value="4" style="text;html=1;align=center;verticalAlign=middle;whiteSpace=wrap;rounded=0;fillColor=#f5f5f5;strokeColor=#666666;fontSize=14;fontColor=#333333;" vertex="1" parent="EnVijCoMFNbLVISE0wcL-1">
          <mxGeometry x="100" y="40" width="40" height="40" as="geometry" />
        </mxCell>
        <mxCell id="EnVijCoMFNbLVISE0wcL-34" value="9" style="text;html=1;align=center;verticalAlign=middle;whiteSpace=wrap;rounded=0;fillColor=#f5f5f5;strokeColor=#666666;fontSize=14;fontColor=#333333;" vertex="1" parent="EnVijCoMFNbLVISE0wcL-1">
          <mxGeometry x="140" y="40" width="40" height="40" as="geometry" />
        </mxCell>
        <mxCell id="EnVijCoMFNbLVISE0wcL-35" value="num" style="text;html=1;align=center;verticalAlign=middle;whiteSpace=wrap;rounded=0;fontSize=10;" vertex="1" parent="EnVijCoMFNbLVISE0wcL-1">
          <mxGeometry x="60" y="80" width="120" height="20" as="geometry" />
        </mxCell>
        <mxCell id="EnVijCoMFNbLVISE0wcL-36" style="edgeStyle=orthogonalEdgeStyle;rounded=0;orthogonalLoop=1;jettySize=auto;html=1;exitX=1;exitY=0.5;exitDx=0;exitDy=0;entryX=0;entryY=0.5;entryDx=0;entryDy=0;fillColor=#dae8fc;strokeColor=#6c8ebf;" edge="1" parent="EnVijCoMFNbLVISE0wcL-1" source="EnVijCoMFNbLVISE0wcL-37" target="EnVijCoMFNbLVISE0wcL-5">
          <mxGeometry relative="1" as="geometry">
            <Array as="points">
              <mxPoint x="240" y="140" />
              <mxPoint x="240" y="90" />
            </Array>
          </mxGeometry>
        </mxCell>
        <mxCell id="hZ-eyYXxSnOKugGoLdY_-0" value="749-500" style="edgeStyle=orthogonalEdgeStyle;rounded=0;orthogonalLoop=1;jettySize=auto;html=1;exitX=0;exitY=0.5;exitDx=0;exitDy=0;entryX=0;entryY=0.5;entryDx=0;entryDy=0;fillColor=#dae8fc;strokeColor=#6c8ebf;" edge="1" parent="EnVijCoMFNbLVISE0wcL-1" source="EnVijCoMFNbLVISE0wcL-37" target="EnVijCoMFNbLVISE0wcL-32">
          <mxGeometry relative="1" as="geometry" />
        </mxCell>
        <mxCell id="EnVijCoMFNbLVISE0wcL-37" value="500" style="text;html=1;align=center;verticalAlign=middle;whiteSpace=wrap;rounded=0;fillColor=#dae8fc;strokeColor=#6c8ebf;fontSize=14;fontColor=#333333;" vertex="1" parent="EnVijCoMFNbLVISE0wcL-1">
          <mxGeometry x="60" y="120" width="40" height="40" as="geometry" />
        </mxCell>
        <mxCell id="EnVijCoMFNbLVISE0wcL-38" value="floor" style="text;html=1;align=center;verticalAlign=middle;whiteSpace=wrap;rounded=0;fontSize=10;" vertex="1" parent="EnVijCoMFNbLVISE0wcL-1">
          <mxGeometry x="60" y="160" width="40" height="20" as="geometry" />
        </mxCell>
        <mxCell id="EnVijCoMFNbLVISE0wcL-39" value="M" style="text;html=1;align=center;verticalAlign=middle;whiteSpace=wrap;rounded=0;fillColor=#f5f5f5;strokeColor=#666666;fontSize=14;fontColor=#333333;" vertex="1" parent="EnVijCoMFNbLVISE0wcL-1">
          <mxGeometry x="60" y="200" width="40" height="40" as="geometry" />
        </mxCell>
        <mxCell id="EnVijCoMFNbLVISE0wcL-40" value="return" style="text;html=1;align=center;verticalAlign=middle;whiteSpace=wrap;rounded=0;fontSize=10;" vertex="1" parent="EnVijCoMFNbLVISE0wcL-1">
          <mxGeometry x="60" y="240" width="160" height="20" as="geometry" />
        </mxCell>
        <mxCell id="95tknr4YAIFt2j-NvxlN-1" value="M" style="text;html=1;align=center;verticalAlign=middle;whiteSpace=wrap;rounded=0;fillColor=#f5f5f5;strokeColor=#666666;fontSize=14;fontColor=#333333;" vertex="1" parent="EnVijCoMFNbLVISE0wcL-1">
          <mxGeometry x="100" y="200" width="40" height="40" as="geometry" />
        </mxCell>
        <mxCell id="95tknr4YAIFt2j-NvxlN-2" value="M" style="text;html=1;align=center;verticalAlign=middle;whiteSpace=wrap;rounded=0;fillColor=#f5f5f5;strokeColor=#666666;fontSize=14;fontColor=#333333;" vertex="1" parent="EnVijCoMFNbLVISE0wcL-1">
          <mxGeometry x="140" y="200" width="40" height="40" as="geometry" />
        </mxCell>
        <mxCell id="95tknr4YAIFt2j-NvxlN-3" value="D" style="text;html=1;align=center;verticalAlign=middle;whiteSpace=wrap;rounded=0;fillColor=#d5e8d4;strokeColor=#82b366;fontSize=14;fontColor=#333333;" vertex="1" parent="EnVijCoMFNbLVISE0wcL-1">
          <mxGeometry x="180" y="200" width="40" height="40" as="geometry" />
        </mxCell>
      </root>
    </mxGraphModel>
  </diagram>
  <diagram name="3" id="RKvbiVjLcmc640zQYh3S">
    <mxGraphModel dx="1092" dy="648" grid="1" gridSize="10" guides="1" tooltips="1" connect="1" arrows="1" fold="1" page="1" pageScale="1" pageWidth="440" pageHeight="360" math="0" shadow="0">
      <root>
        <mxCell id="yihEa-E-7Rv6ql4CjtqE-0" />
        <mxCell id="yihEa-E-7Rv6ql4CjtqE-1" parent="yihEa-E-7Rv6ql4CjtqE-0" />
        <mxCell id="yihEa-E-7Rv6ql4CjtqE-2" value="1000" style="text;html=1;align=center;verticalAlign=middle;whiteSpace=wrap;rounded=0;fillColor=#f5f5f5;strokeColor=#666666;fontSize=14;fontColor=#333333;" vertex="1" parent="yihEa-E-7Rv6ql4CjtqE-1">
          <mxGeometry x="300" y="40" width="40" height="20" as="geometry" />
        </mxCell>
        <mxCell id="yihEa-E-7Rv6ql4CjtqE-3" value="romans" style="text;html=1;align=center;verticalAlign=middle;whiteSpace=wrap;rounded=0;fontSize=10;" vertex="1" parent="yihEa-E-7Rv6ql4CjtqE-1">
          <mxGeometry x="300" y="300" width="80" height="20" as="geometry" />
        </mxCell>
        <mxCell id="yihEa-E-7Rv6ql4CjtqE-4" value="900" style="text;html=1;align=center;verticalAlign=middle;whiteSpace=wrap;rounded=0;fillColor=#f5f5f5;strokeColor=#666666;fontSize=14;fontColor=#333333;" vertex="1" parent="yihEa-E-7Rv6ql4CjtqE-1">
          <mxGeometry x="300" y="60" width="40" height="20" as="geometry" />
        </mxCell>
        <mxCell id="yihEa-E-7Rv6ql4CjtqE-5" value="500" style="text;html=1;align=center;verticalAlign=middle;whiteSpace=wrap;rounded=0;fillColor=#f5f5f5;strokeColor=#666666;fontSize=14;fontColor=#333333;" vertex="1" parent="yihEa-E-7Rv6ql4CjtqE-1">
          <mxGeometry x="300" y="80" width="40" height="20" as="geometry" />
        </mxCell>
        <mxCell id="yihEa-E-7Rv6ql4CjtqE-6" value="400" style="text;html=1;align=center;verticalAlign=middle;whiteSpace=wrap;rounded=0;fillColor=#f5f5f5;strokeColor=#666666;fontSize=14;fontColor=#333333;" vertex="1" parent="yihEa-E-7Rv6ql4CjtqE-1">
          <mxGeometry x="300" y="100" width="40" height="20" as="geometry" />
        </mxCell>
        <mxCell id="yihEa-E-7Rv6ql4CjtqE-7" value="100" style="text;html=1;align=center;verticalAlign=middle;whiteSpace=wrap;rounded=0;fillColor=#dae8fc;strokeColor=#6c8ebf;fontSize=14;fontColor=#333333;" vertex="1" parent="yihEa-E-7Rv6ql4CjtqE-1">
          <mxGeometry x="300" y="120" width="40" height="20" as="geometry" />
        </mxCell>
        <mxCell id="yihEa-E-7Rv6ql4CjtqE-8" value="90" style="text;html=1;align=center;verticalAlign=middle;whiteSpace=wrap;rounded=0;fillColor=#f5f5f5;strokeColor=#666666;fontSize=14;fontColor=#333333;" vertex="1" parent="yihEa-E-7Rv6ql4CjtqE-1">
          <mxGeometry x="300" y="140" width="40" height="20" as="geometry" />
        </mxCell>
        <mxCell id="yihEa-E-7Rv6ql4CjtqE-9" value="50" style="text;html=1;align=center;verticalAlign=middle;whiteSpace=wrap;rounded=0;fillColor=#f5f5f5;strokeColor=#666666;fontSize=14;fontColor=#333333;" vertex="1" parent="yihEa-E-7Rv6ql4CjtqE-1">
          <mxGeometry x="300" y="160" width="40" height="20" as="geometry" />
        </mxCell>
        <mxCell id="yihEa-E-7Rv6ql4CjtqE-10" value="40" style="text;html=1;align=center;verticalAlign=middle;whiteSpace=wrap;rounded=0;fillColor=#f5f5f5;strokeColor=#666666;fontSize=14;fontColor=#333333;" vertex="1" parent="yihEa-E-7Rv6ql4CjtqE-1">
          <mxGeometry x="300" y="180" width="40" height="20" as="geometry" />
        </mxCell>
        <mxCell id="yihEa-E-7Rv6ql4CjtqE-11" value="10" style="text;html=1;align=center;verticalAlign=middle;whiteSpace=wrap;rounded=0;fillColor=#f5f5f5;strokeColor=#666666;fontSize=14;fontColor=#333333;" vertex="1" parent="yihEa-E-7Rv6ql4CjtqE-1">
          <mxGeometry x="300" y="200" width="40" height="20" as="geometry" />
        </mxCell>
        <mxCell id="yihEa-E-7Rv6ql4CjtqE-12" value="9" style="text;html=1;align=center;verticalAlign=middle;whiteSpace=wrap;rounded=0;fillColor=#f5f5f5;strokeColor=#666666;fontSize=14;fontColor=#333333;" vertex="1" parent="yihEa-E-7Rv6ql4CjtqE-1">
          <mxGeometry x="300" y="220" width="40" height="20" as="geometry" />
        </mxCell>
        <mxCell id="yihEa-E-7Rv6ql4CjtqE-13" value="5" style="text;html=1;align=center;verticalAlign=middle;whiteSpace=wrap;rounded=0;fillColor=#f5f5f5;strokeColor=#666666;fontSize=14;fontColor=#333333;" vertex="1" parent="yihEa-E-7Rv6ql4CjtqE-1">
          <mxGeometry x="300" y="240" width="40" height="20" as="geometry" />
        </mxCell>
        <mxCell id="yihEa-E-7Rv6ql4CjtqE-14" value="4" style="text;html=1;align=center;verticalAlign=middle;whiteSpace=wrap;rounded=0;fillColor=#f5f5f5;strokeColor=#666666;fontSize=14;fontColor=#333333;" vertex="1" parent="yihEa-E-7Rv6ql4CjtqE-1">
          <mxGeometry x="300" y="260" width="40" height="20" as="geometry" />
        </mxCell>
        <mxCell id="yihEa-E-7Rv6ql4CjtqE-15" value="M" style="text;html=1;align=center;verticalAlign=middle;whiteSpace=wrap;rounded=0;fillColor=#f5f5f5;strokeColor=#666666;fontSize=14;fontColor=#333333;" vertex="1" parent="yihEa-E-7Rv6ql4CjtqE-1">
          <mxGeometry x="340" y="40" width="40" height="20" as="geometry" />
        </mxCell>
        <mxCell id="yihEa-E-7Rv6ql4CjtqE-16" value="CM" style="text;html=1;align=center;verticalAlign=middle;whiteSpace=wrap;rounded=0;fillColor=#f5f5f5;strokeColor=#666666;fontSize=14;fontColor=#333333;" vertex="1" parent="yihEa-E-7Rv6ql4CjtqE-1">
          <mxGeometry x="340" y="60" width="40" height="20" as="geometry" />
        </mxCell>
        <mxCell id="yihEa-E-7Rv6ql4CjtqE-18" value="D" style="text;html=1;align=center;verticalAlign=middle;whiteSpace=wrap;rounded=0;fillColor=#f5f5f5;strokeColor=#666666;fontSize=14;fontColor=#333333;" vertex="1" parent="yihEa-E-7Rv6ql4CjtqE-1">
          <mxGeometry x="340" y="80" width="40" height="20" as="geometry" />
        </mxCell>
        <mxCell id="yihEa-E-7Rv6ql4CjtqE-19" value="CD" style="text;html=1;align=center;verticalAlign=middle;whiteSpace=wrap;rounded=0;fillColor=#f5f5f5;strokeColor=#666666;fontSize=14;fontColor=#333333;" vertex="1" parent="yihEa-E-7Rv6ql4CjtqE-1">
          <mxGeometry x="340" y="100" width="40" height="20" as="geometry" />
        </mxCell>
        <mxCell id="yihEa-E-7Rv6ql4CjtqE-20" value="C" style="text;html=1;align=center;verticalAlign=middle;whiteSpace=wrap;rounded=0;fillColor=#d5e8d4;strokeColor=#82b366;fontSize=14;fontColor=#333333;" vertex="1" parent="yihEa-E-7Rv6ql4CjtqE-1">
          <mxGeometry x="340" y="120" width="40" height="20" as="geometry" />
        </mxCell>
        <mxCell id="yihEa-E-7Rv6ql4CjtqE-21" value="XC" style="text;html=1;align=center;verticalAlign=middle;whiteSpace=wrap;rounded=0;fillColor=#f5f5f5;strokeColor=#666666;fontSize=14;fontColor=#333333;" vertex="1" parent="yihEa-E-7Rv6ql4CjtqE-1">
          <mxGeometry x="340" y="140" width="40" height="20" as="geometry" />
        </mxCell>
        <mxCell id="yihEa-E-7Rv6ql4CjtqE-22" value="L" style="text;html=1;align=center;verticalAlign=middle;whiteSpace=wrap;rounded=0;fillColor=#f5f5f5;strokeColor=#666666;fontSize=14;fontColor=#333333;" vertex="1" parent="yihEa-E-7Rv6ql4CjtqE-1">
          <mxGeometry x="340" y="160" width="40" height="20" as="geometry" />
        </mxCell>
        <mxCell id="yihEa-E-7Rv6ql4CjtqE-23" value="XL" style="text;html=1;align=center;verticalAlign=middle;whiteSpace=wrap;rounded=0;fillColor=#f5f5f5;strokeColor=#666666;fontSize=14;fontColor=#333333;" vertex="1" parent="yihEa-E-7Rv6ql4CjtqE-1">
          <mxGeometry x="340" y="180" width="40" height="20" as="geometry" />
        </mxCell>
        <mxCell id="KNsOE2EKqb9XdLN0slXv-4" style="edgeStyle=orthogonalEdgeStyle;rounded=0;orthogonalLoop=1;jettySize=auto;html=1;exitX=1;exitY=0.5;exitDx=0;exitDy=0;entryX=1;entryY=0.5;entryDx=0;entryDy=0;fillColor=#d5e8d4;strokeColor=#82b366;" edge="1" parent="yihEa-E-7Rv6ql4CjtqE-1" source="yihEa-E-7Rv6ql4CjtqE-20" target="yihEa-E-7Rv6ql4CjtqE-43">
          <mxGeometry relative="1" as="geometry">
            <Array as="points">
              <mxPoint x="400" y="130" />
              <mxPoint x="400" y="320" />
              <mxPoint x="280" y="320" />
              <mxPoint x="280" y="220" />
            </Array>
          </mxGeometry>
        </mxCell>
        <mxCell id="yihEa-E-7Rv6ql4CjtqE-24" value="X" style="text;html=1;align=center;verticalAlign=middle;whiteSpace=wrap;rounded=0;fillColor=#f5f5f5;strokeColor=#666666;fontSize=14;fontColor=#333333;" vertex="1" parent="yihEa-E-7Rv6ql4CjtqE-1">
          <mxGeometry x="340" y="200" width="40" height="20" as="geometry" />
        </mxCell>
        <mxCell id="yihEa-E-7Rv6ql4CjtqE-25" value="IX" style="text;html=1;align=center;verticalAlign=middle;whiteSpace=wrap;rounded=0;fillColor=#f5f5f5;strokeColor=#666666;fontSize=14;fontColor=#333333;" vertex="1" parent="yihEa-E-7Rv6ql4CjtqE-1">
          <mxGeometry x="340" y="220" width="40" height="20" as="geometry" />
        </mxCell>
        <mxCell id="yihEa-E-7Rv6ql4CjtqE-26" value="V" style="text;html=1;align=center;verticalAlign=middle;whiteSpace=wrap;rounded=0;fillColor=#f5f5f5;strokeColor=#666666;fontSize=14;fontColor=#333333;" vertex="1" parent="yihEa-E-7Rv6ql4CjtqE-1">
          <mxGeometry x="340" y="240" width="40" height="20" as="geometry" />
        </mxCell>
        <mxCell id="yihEa-E-7Rv6ql4CjtqE-27" value="IV" style="text;html=1;align=center;verticalAlign=middle;whiteSpace=wrap;rounded=0;fillColor=#f5f5f5;strokeColor=#666666;fontSize=14;fontColor=#333333;" vertex="1" parent="yihEa-E-7Rv6ql4CjtqE-1">
          <mxGeometry x="340" y="260" width="40" height="20" as="geometry" />
        </mxCell>
        <mxCell id="yihEa-E-7Rv6ql4CjtqE-28" value="1" style="text;html=1;align=center;verticalAlign=middle;whiteSpace=wrap;rounded=0;fillColor=#f5f5f5;strokeColor=#666666;fontSize=14;fontColor=#333333;" vertex="1" parent="yihEa-E-7Rv6ql4CjtqE-1">
          <mxGeometry x="300" y="280" width="40" height="20" as="geometry" />
        </mxCell>
        <mxCell id="yihEa-E-7Rv6ql4CjtqE-29" value="I" style="text;html=1;align=center;verticalAlign=middle;whiteSpace=wrap;rounded=0;fillColor=#f5f5f5;strokeColor=#666666;fontSize=14;fontColor=#333333;" vertex="1" parent="yihEa-E-7Rv6ql4CjtqE-1">
          <mxGeometry x="340" y="280" width="40" height="20" as="geometry" />
        </mxCell>
        <mxCell id="yihEa-E-7Rv6ql4CjtqE-30" style="edgeStyle=orthogonalEdgeStyle;rounded=0;orthogonalLoop=1;jettySize=auto;html=1;exitX=0.5;exitY=1;exitDx=0;exitDy=0;entryX=0.5;entryY=0;entryDx=0;entryDy=0;fillColor=#f5f5f5;strokeColor=#666666;" edge="1" parent="yihEa-E-7Rv6ql4CjtqE-1" source="yihEa-E-7Rv6ql4CjtqE-31" target="yihEa-E-7Rv6ql4CjtqE-37">
          <mxGeometry relative="1" as="geometry" />
        </mxCell>
        <mxCell id="yihEa-E-7Rv6ql4CjtqE-31" value="2" style="text;html=1;align=center;verticalAlign=middle;whiteSpace=wrap;rounded=0;fillColor=#f5f5f5;strokeColor=#666666;fontSize=14;fontColor=#333333;" vertex="1" parent="yihEa-E-7Rv6ql4CjtqE-1">
          <mxGeometry x="60" y="40" width="40" height="40" as="geometry" />
        </mxCell>
        <mxCell id="yihEa-E-7Rv6ql4CjtqE-32" value="4" style="text;html=1;align=center;verticalAlign=middle;whiteSpace=wrap;rounded=0;fillColor=#f5f5f5;strokeColor=#666666;fontSize=14;fontColor=#333333;" vertex="1" parent="yihEa-E-7Rv6ql4CjtqE-1">
          <mxGeometry x="100" y="40" width="40" height="40" as="geometry" />
        </mxCell>
        <mxCell id="yihEa-E-7Rv6ql4CjtqE-33" value="9" style="text;html=1;align=center;verticalAlign=middle;whiteSpace=wrap;rounded=0;fillColor=#f5f5f5;strokeColor=#666666;fontSize=14;fontColor=#333333;" vertex="1" parent="yihEa-E-7Rv6ql4CjtqE-1">
          <mxGeometry x="140" y="40" width="40" height="40" as="geometry" />
        </mxCell>
        <mxCell id="yihEa-E-7Rv6ql4CjtqE-34" value="num" style="text;html=1;align=center;verticalAlign=middle;whiteSpace=wrap;rounded=0;fontSize=10;" vertex="1" parent="yihEa-E-7Rv6ql4CjtqE-1">
          <mxGeometry x="60" y="80" width="120" height="20" as="geometry" />
        </mxCell>
        <mxCell id="yihEa-E-7Rv6ql4CjtqE-35" style="edgeStyle=orthogonalEdgeStyle;rounded=0;orthogonalLoop=1;jettySize=auto;html=1;exitX=1;exitY=0.5;exitDx=0;exitDy=0;entryX=0;entryY=0.5;entryDx=0;entryDy=0;fillColor=#dae8fc;strokeColor=#6c8ebf;" edge="1" parent="yihEa-E-7Rv6ql4CjtqE-1" source="yihEa-E-7Rv6ql4CjtqE-37" target="yihEa-E-7Rv6ql4CjtqE-7">
          <mxGeometry relative="1" as="geometry">
            <Array as="points">
              <mxPoint x="280" y="140" />
              <mxPoint x="280" y="130" />
            </Array>
          </mxGeometry>
        </mxCell>
        <mxCell id="yihEa-E-7Rv6ql4CjtqE-36" value="249-100" style="edgeStyle=orthogonalEdgeStyle;rounded=0;orthogonalLoop=1;jettySize=auto;html=1;exitX=0;exitY=0.5;exitDx=0;exitDy=0;entryX=0;entryY=0.5;entryDx=0;entryDy=0;fillColor=#dae8fc;strokeColor=#6c8ebf;" edge="1" parent="yihEa-E-7Rv6ql4CjtqE-1" source="yihEa-E-7Rv6ql4CjtqE-37" target="yihEa-E-7Rv6ql4CjtqE-31">
          <mxGeometry relative="1" as="geometry" />
        </mxCell>
        <mxCell id="yihEa-E-7Rv6ql4CjtqE-37" value="100" style="text;html=1;align=center;verticalAlign=middle;whiteSpace=wrap;rounded=0;fillColor=#dae8fc;strokeColor=#6c8ebf;fontSize=14;fontColor=#333333;" vertex="1" parent="yihEa-E-7Rv6ql4CjtqE-1">
          <mxGeometry x="60" y="120" width="40" height="40" as="geometry" />
        </mxCell>
        <mxCell id="yihEa-E-7Rv6ql4CjtqE-38" value="floor" style="text;html=1;align=center;verticalAlign=middle;whiteSpace=wrap;rounded=0;fontSize=10;" vertex="1" parent="yihEa-E-7Rv6ql4CjtqE-1">
          <mxGeometry x="60" y="160" width="40" height="20" as="geometry" />
        </mxCell>
        <mxCell id="yihEa-E-7Rv6ql4CjtqE-39" value="M" style="text;html=1;align=center;verticalAlign=middle;whiteSpace=wrap;rounded=0;fillColor=#f5f5f5;strokeColor=#666666;fontSize=14;fontColor=#333333;" vertex="1" parent="yihEa-E-7Rv6ql4CjtqE-1">
          <mxGeometry x="60" y="200" width="40" height="40" as="geometry" />
        </mxCell>
        <mxCell id="yihEa-E-7Rv6ql4CjtqE-40" value="return" style="text;html=1;align=center;verticalAlign=middle;whiteSpace=wrap;rounded=0;fontSize=10;" vertex="1" parent="yihEa-E-7Rv6ql4CjtqE-1">
          <mxGeometry x="60" y="240" width="200" height="20" as="geometry" />
        </mxCell>
        <mxCell id="yihEa-E-7Rv6ql4CjtqE-41" value="M" style="text;html=1;align=center;verticalAlign=middle;whiteSpace=wrap;rounded=0;fillColor=#f5f5f5;strokeColor=#666666;fontSize=14;fontColor=#333333;" vertex="1" parent="yihEa-E-7Rv6ql4CjtqE-1">
          <mxGeometry x="100" y="200" width="40" height="40" as="geometry" />
        </mxCell>
        <mxCell id="yihEa-E-7Rv6ql4CjtqE-42" value="M" style="text;html=1;align=center;verticalAlign=middle;whiteSpace=wrap;rounded=0;fillColor=#f5f5f5;strokeColor=#666666;fontSize=14;fontColor=#333333;" vertex="1" parent="yihEa-E-7Rv6ql4CjtqE-1">
          <mxGeometry x="140" y="200" width="40" height="40" as="geometry" />
        </mxCell>
        <mxCell id="yihEa-E-7Rv6ql4CjtqE-43" value="C" style="text;html=1;align=center;verticalAlign=middle;whiteSpace=wrap;rounded=0;fillColor=#d5e8d4;strokeColor=#82b366;fontSize=14;fontColor=#333333;" vertex="1" parent="yihEa-E-7Rv6ql4CjtqE-1">
          <mxGeometry x="220" y="200" width="40" height="40" as="geometry" />
        </mxCell>
        <mxCell id="KNsOE2EKqb9XdLN0slXv-2" value="D" style="text;html=1;align=center;verticalAlign=middle;whiteSpace=wrap;rounded=0;fillColor=#f5f5f5;strokeColor=#666666;fontSize=14;fontColor=#333333;" vertex="1" parent="yihEa-E-7Rv6ql4CjtqE-1">
          <mxGeometry x="180" y="200" width="40" height="40" as="geometry" />
        </mxCell>
      </root>
    </mxGraphModel>
  </diagram>
  <diagram name="4" id="ivdiHhGDsGcz8q3rW-1H">
    <mxGraphModel dx="1430" dy="849" grid="1" gridSize="10" guides="1" tooltips="1" connect="1" arrows="1" fold="1" page="1" pageScale="1" pageWidth="520" pageHeight="360" math="0" shadow="0">
      <root>
        <mxCell id="37Sn_1vC7pw4U_0Q6joB-0" />
        <mxCell id="37Sn_1vC7pw4U_0Q6joB-1" parent="37Sn_1vC7pw4U_0Q6joB-0" />
        <mxCell id="37Sn_1vC7pw4U_0Q6joB-2" value="1000" style="text;html=1;align=center;verticalAlign=middle;whiteSpace=wrap;rounded=0;fillColor=#f5f5f5;strokeColor=#666666;fontSize=14;fontColor=#333333;" parent="37Sn_1vC7pw4U_0Q6joB-1" vertex="1">
          <mxGeometry x="380" y="40" width="40" height="20" as="geometry" />
        </mxCell>
        <mxCell id="37Sn_1vC7pw4U_0Q6joB-3" value="romans" style="text;html=1;align=center;verticalAlign=middle;whiteSpace=wrap;rounded=0;fontSize=10;" parent="37Sn_1vC7pw4U_0Q6joB-1" vertex="1">
          <mxGeometry x="380" y="300" width="80" height="20" as="geometry" />
        </mxCell>
        <mxCell id="37Sn_1vC7pw4U_0Q6joB-4" value="900" style="text;html=1;align=center;verticalAlign=middle;whiteSpace=wrap;rounded=0;fillColor=#f5f5f5;strokeColor=#666666;fontSize=14;fontColor=#333333;" parent="37Sn_1vC7pw4U_0Q6joB-1" vertex="1">
          <mxGeometry x="380" y="60" width="40" height="20" as="geometry" />
        </mxCell>
        <mxCell id="37Sn_1vC7pw4U_0Q6joB-5" value="500" style="text;html=1;align=center;verticalAlign=middle;whiteSpace=wrap;rounded=0;fillColor=#f5f5f5;strokeColor=#666666;fontSize=14;fontColor=#333333;" parent="37Sn_1vC7pw4U_0Q6joB-1" vertex="1">
          <mxGeometry x="380" y="80" width="40" height="20" as="geometry" />
        </mxCell>
        <mxCell id="37Sn_1vC7pw4U_0Q6joB-6" value="400" style="text;html=1;align=center;verticalAlign=middle;whiteSpace=wrap;rounded=0;fillColor=#f5f5f5;strokeColor=#666666;fontSize=14;fontColor=#333333;" parent="37Sn_1vC7pw4U_0Q6joB-1" vertex="1">
          <mxGeometry x="380" y="100" width="40" height="20" as="geometry" />
        </mxCell>
        <mxCell id="37Sn_1vC7pw4U_0Q6joB-7" value="100" style="text;html=1;align=center;verticalAlign=middle;whiteSpace=wrap;rounded=0;fillColor=#f5f5f5;strokeColor=#666666;fontSize=14;fontColor=#333333;" parent="37Sn_1vC7pw4U_0Q6joB-1" vertex="1">
          <mxGeometry x="380" y="120" width="40" height="20" as="geometry" />
        </mxCell>
        <mxCell id="37Sn_1vC7pw4U_0Q6joB-8" value="90" style="text;html=1;align=center;verticalAlign=middle;whiteSpace=wrap;rounded=0;fillColor=#f5f5f5;strokeColor=#666666;fontSize=14;fontColor=#333333;" parent="37Sn_1vC7pw4U_0Q6joB-1" vertex="1">
          <mxGeometry x="380" y="140" width="40" height="20" as="geometry" />
        </mxCell>
        <mxCell id="37Sn_1vC7pw4U_0Q6joB-9" value="50" style="text;html=1;align=center;verticalAlign=middle;whiteSpace=wrap;rounded=0;fillColor=#f5f5f5;strokeColor=#666666;fontSize=14;fontColor=#333333;" parent="37Sn_1vC7pw4U_0Q6joB-1" vertex="1">
          <mxGeometry x="380" y="160" width="40" height="20" as="geometry" />
        </mxCell>
        <mxCell id="37Sn_1vC7pw4U_0Q6joB-10" value="40" style="text;html=1;align=center;verticalAlign=middle;whiteSpace=wrap;rounded=0;fillColor=#dae8fc;strokeColor=#6c8ebf;fontSize=14;fontColor=#333333;" parent="37Sn_1vC7pw4U_0Q6joB-1" vertex="1">
          <mxGeometry x="380" y="180" width="40" height="20" as="geometry" />
        </mxCell>
        <mxCell id="37Sn_1vC7pw4U_0Q6joB-11" value="10" style="text;html=1;align=center;verticalAlign=middle;whiteSpace=wrap;rounded=0;fillColor=#f5f5f5;strokeColor=#666666;fontSize=14;fontColor=#333333;" parent="37Sn_1vC7pw4U_0Q6joB-1" vertex="1">
          <mxGeometry x="380" y="200" width="40" height="20" as="geometry" />
        </mxCell>
        <mxCell id="37Sn_1vC7pw4U_0Q6joB-12" value="9" style="text;html=1;align=center;verticalAlign=middle;whiteSpace=wrap;rounded=0;fillColor=#f5f5f5;strokeColor=#666666;fontSize=14;fontColor=#333333;" parent="37Sn_1vC7pw4U_0Q6joB-1" vertex="1">
          <mxGeometry x="380" y="220" width="40" height="20" as="geometry" />
        </mxCell>
        <mxCell id="37Sn_1vC7pw4U_0Q6joB-13" value="5" style="text;html=1;align=center;verticalAlign=middle;whiteSpace=wrap;rounded=0;fillColor=#f5f5f5;strokeColor=#666666;fontSize=14;fontColor=#333333;" parent="37Sn_1vC7pw4U_0Q6joB-1" vertex="1">
          <mxGeometry x="380" y="240" width="40" height="20" as="geometry" />
        </mxCell>
        <mxCell id="37Sn_1vC7pw4U_0Q6joB-14" value="4" style="text;html=1;align=center;verticalAlign=middle;whiteSpace=wrap;rounded=0;fillColor=#f5f5f5;strokeColor=#666666;fontSize=14;fontColor=#333333;" parent="37Sn_1vC7pw4U_0Q6joB-1" vertex="1">
          <mxGeometry x="380" y="260" width="40" height="20" as="geometry" />
        </mxCell>
        <mxCell id="37Sn_1vC7pw4U_0Q6joB-15" value="M" style="text;html=1;align=center;verticalAlign=middle;whiteSpace=wrap;rounded=0;fillColor=#f5f5f5;strokeColor=#666666;fontSize=14;fontColor=#333333;" parent="37Sn_1vC7pw4U_0Q6joB-1" vertex="1">
          <mxGeometry x="420" y="40" width="40" height="20" as="geometry" />
        </mxCell>
        <mxCell id="37Sn_1vC7pw4U_0Q6joB-16" value="CM" style="text;html=1;align=center;verticalAlign=middle;whiteSpace=wrap;rounded=0;fillColor=#f5f5f5;strokeColor=#666666;fontSize=14;fontColor=#333333;" parent="37Sn_1vC7pw4U_0Q6joB-1" vertex="1">
          <mxGeometry x="420" y="60" width="40" height="20" as="geometry" />
        </mxCell>
        <mxCell id="37Sn_1vC7pw4U_0Q6joB-17" value="D" style="text;html=1;align=center;verticalAlign=middle;whiteSpace=wrap;rounded=0;fillColor=#f5f5f5;strokeColor=#666666;fontSize=14;fontColor=#333333;" parent="37Sn_1vC7pw4U_0Q6joB-1" vertex="1">
          <mxGeometry x="420" y="80" width="40" height="20" as="geometry" />
        </mxCell>
        <mxCell id="37Sn_1vC7pw4U_0Q6joB-18" value="CD" style="text;html=1;align=center;verticalAlign=middle;whiteSpace=wrap;rounded=0;fillColor=#f5f5f5;strokeColor=#666666;fontSize=14;fontColor=#333333;" parent="37Sn_1vC7pw4U_0Q6joB-1" vertex="1">
          <mxGeometry x="420" y="100" width="40" height="20" as="geometry" />
        </mxCell>
        <mxCell id="37Sn_1vC7pw4U_0Q6joB-19" value="C" style="text;html=1;align=center;verticalAlign=middle;whiteSpace=wrap;rounded=0;fillColor=#f5f5f5;strokeColor=#666666;fontSize=14;fontColor=#333333;" parent="37Sn_1vC7pw4U_0Q6joB-1" vertex="1">
          <mxGeometry x="420" y="120" width="40" height="20" as="geometry" />
        </mxCell>
        <mxCell id="37Sn_1vC7pw4U_0Q6joB-20" value="XC" style="text;html=1;align=center;verticalAlign=middle;whiteSpace=wrap;rounded=0;fillColor=#f5f5f5;strokeColor=#666666;fontSize=14;fontColor=#333333;" parent="37Sn_1vC7pw4U_0Q6joB-1" vertex="1">
          <mxGeometry x="420" y="140" width="40" height="20" as="geometry" />
        </mxCell>
        <mxCell id="37Sn_1vC7pw4U_0Q6joB-21" value="L" style="text;html=1;align=center;verticalAlign=middle;whiteSpace=wrap;rounded=0;fillColor=#f5f5f5;strokeColor=#666666;fontSize=14;fontColor=#333333;" parent="37Sn_1vC7pw4U_0Q6joB-1" vertex="1">
          <mxGeometry x="420" y="160" width="40" height="20" as="geometry" />
        </mxCell>
        <mxCell id="R42Yw3nYAir35qv77cxx-2" style="edgeStyle=orthogonalEdgeStyle;rounded=0;orthogonalLoop=1;jettySize=auto;html=1;exitX=1;exitY=0.5;exitDx=0;exitDy=0;entryX=1;entryY=0.5;entryDx=0;entryDy=0;fillColor=#d5e8d4;strokeColor=#82b366;" parent="37Sn_1vC7pw4U_0Q6joB-1" source="37Sn_1vC7pw4U_0Q6joB-22" target="R42Yw3nYAir35qv77cxx-1" edge="1">
          <mxGeometry relative="1" as="geometry">
            <Array as="points">
              <mxPoint x="480" y="190" />
              <mxPoint x="480" y="320" />
              <mxPoint x="360" y="320" />
              <mxPoint x="360" y="220" />
            </Array>
          </mxGeometry>
        </mxCell>
        <mxCell id="37Sn_1vC7pw4U_0Q6joB-22" value="XL" style="text;html=1;align=center;verticalAlign=middle;whiteSpace=wrap;rounded=0;fillColor=#d5e8d4;strokeColor=#82b366;fontSize=14;fontColor=#333333;" parent="37Sn_1vC7pw4U_0Q6joB-1" vertex="1">
          <mxGeometry x="420" y="180" width="40" height="20" as="geometry" />
        </mxCell>
        <mxCell id="37Sn_1vC7pw4U_0Q6joB-24" value="X" style="text;html=1;align=center;verticalAlign=middle;whiteSpace=wrap;rounded=0;fillColor=#f5f5f5;strokeColor=#666666;fontSize=14;fontColor=#333333;" parent="37Sn_1vC7pw4U_0Q6joB-1" vertex="1">
          <mxGeometry x="420" y="200" width="40" height="20" as="geometry" />
        </mxCell>
        <mxCell id="37Sn_1vC7pw4U_0Q6joB-25" value="IX" style="text;html=1;align=center;verticalAlign=middle;whiteSpace=wrap;rounded=0;fillColor=#f5f5f5;strokeColor=#666666;fontSize=14;fontColor=#333333;" parent="37Sn_1vC7pw4U_0Q6joB-1" vertex="1">
          <mxGeometry x="420" y="220" width="40" height="20" as="geometry" />
        </mxCell>
        <mxCell id="37Sn_1vC7pw4U_0Q6joB-26" value="V" style="text;html=1;align=center;verticalAlign=middle;whiteSpace=wrap;rounded=0;fillColor=#f5f5f5;strokeColor=#666666;fontSize=14;fontColor=#333333;" parent="37Sn_1vC7pw4U_0Q6joB-1" vertex="1">
          <mxGeometry x="420" y="240" width="40" height="20" as="geometry" />
        </mxCell>
        <mxCell id="37Sn_1vC7pw4U_0Q6joB-27" value="IV" style="text;html=1;align=center;verticalAlign=middle;whiteSpace=wrap;rounded=0;fillColor=#f5f5f5;strokeColor=#666666;fontSize=14;fontColor=#333333;" parent="37Sn_1vC7pw4U_0Q6joB-1" vertex="1">
          <mxGeometry x="420" y="260" width="40" height="20" as="geometry" />
        </mxCell>
        <mxCell id="37Sn_1vC7pw4U_0Q6joB-28" value="1" style="text;html=1;align=center;verticalAlign=middle;whiteSpace=wrap;rounded=0;fillColor=#f5f5f5;strokeColor=#666666;fontSize=14;fontColor=#333333;" parent="37Sn_1vC7pw4U_0Q6joB-1" vertex="1">
          <mxGeometry x="380" y="280" width="40" height="20" as="geometry" />
        </mxCell>
        <mxCell id="37Sn_1vC7pw4U_0Q6joB-29" value="I" style="text;html=1;align=center;verticalAlign=middle;whiteSpace=wrap;rounded=0;fillColor=#f5f5f5;strokeColor=#666666;fontSize=14;fontColor=#333333;" parent="37Sn_1vC7pw4U_0Q6joB-1" vertex="1">
          <mxGeometry x="420" y="280" width="40" height="20" as="geometry" />
        </mxCell>
        <mxCell id="37Sn_1vC7pw4U_0Q6joB-30" style="edgeStyle=orthogonalEdgeStyle;rounded=0;orthogonalLoop=1;jettySize=auto;html=1;exitX=0.5;exitY=1;exitDx=0;exitDy=0;entryX=0.5;entryY=0;entryDx=0;entryDy=0;fillColor=#f5f5f5;strokeColor=#666666;" parent="37Sn_1vC7pw4U_0Q6joB-1" source="37Sn_1vC7pw4U_0Q6joB-31" target="37Sn_1vC7pw4U_0Q6joB-37" edge="1">
          <mxGeometry relative="1" as="geometry" />
        </mxCell>
        <mxCell id="37Sn_1vC7pw4U_0Q6joB-31" value="4" style="text;html=1;align=center;verticalAlign=middle;whiteSpace=wrap;rounded=0;fillColor=#f5f5f5;strokeColor=#666666;fontSize=14;fontColor=#333333;" parent="37Sn_1vC7pw4U_0Q6joB-1" vertex="1">
          <mxGeometry x="60" y="40" width="40" height="40" as="geometry" />
        </mxCell>
        <mxCell id="37Sn_1vC7pw4U_0Q6joB-32" value="9" style="text;html=1;align=center;verticalAlign=middle;whiteSpace=wrap;rounded=0;fillColor=#f5f5f5;strokeColor=#666666;fontSize=14;fontColor=#333333;" parent="37Sn_1vC7pw4U_0Q6joB-1" vertex="1">
          <mxGeometry x="100" y="40" width="40" height="40" as="geometry" />
        </mxCell>
        <mxCell id="37Sn_1vC7pw4U_0Q6joB-34" value="num" style="text;html=1;align=center;verticalAlign=middle;whiteSpace=wrap;rounded=0;fontSize=10;" parent="37Sn_1vC7pw4U_0Q6joB-1" vertex="1">
          <mxGeometry x="60" y="80" width="80" height="20" as="geometry" />
        </mxCell>
        <mxCell id="37Sn_1vC7pw4U_0Q6joB-35" style="edgeStyle=orthogonalEdgeStyle;rounded=0;orthogonalLoop=1;jettySize=auto;html=1;exitX=1;exitY=0.5;exitDx=0;exitDy=0;entryX=0;entryY=0.5;entryDx=0;entryDy=0;fillColor=#dae8fc;strokeColor=#6c8ebf;" parent="37Sn_1vC7pw4U_0Q6joB-1" source="37Sn_1vC7pw4U_0Q6joB-37" target="37Sn_1vC7pw4U_0Q6joB-10" edge="1">
          <mxGeometry relative="1" as="geometry">
            <Array as="points">
              <mxPoint x="360" y="140" />
              <mxPoint x="360" y="190" />
            </Array>
          </mxGeometry>
        </mxCell>
        <mxCell id="37Sn_1vC7pw4U_0Q6joB-36" value="49-40" style="edgeStyle=orthogonalEdgeStyle;rounded=0;orthogonalLoop=1;jettySize=auto;html=1;exitX=0;exitY=0.5;exitDx=0;exitDy=0;entryX=0;entryY=0.5;entryDx=0;entryDy=0;fillColor=#dae8fc;strokeColor=#6c8ebf;" parent="37Sn_1vC7pw4U_0Q6joB-1" source="37Sn_1vC7pw4U_0Q6joB-37" target="37Sn_1vC7pw4U_0Q6joB-31" edge="1">
          <mxGeometry relative="1" as="geometry">
            <mxPoint as="offset" />
          </mxGeometry>
        </mxCell>
        <mxCell id="37Sn_1vC7pw4U_0Q6joB-37" value="40" style="text;html=1;align=center;verticalAlign=middle;whiteSpace=wrap;rounded=0;fillColor=#dae8fc;strokeColor=#6c8ebf;fontSize=14;fontColor=#333333;" parent="37Sn_1vC7pw4U_0Q6joB-1" vertex="1">
          <mxGeometry x="60" y="120" width="40" height="40" as="geometry" />
        </mxCell>
        <mxCell id="37Sn_1vC7pw4U_0Q6joB-38" value="floor" style="text;html=1;align=center;verticalAlign=middle;whiteSpace=wrap;rounded=0;fontSize=10;" parent="37Sn_1vC7pw4U_0Q6joB-1" vertex="1">
          <mxGeometry x="60" y="160" width="40" height="20" as="geometry" />
        </mxCell>
        <mxCell id="37Sn_1vC7pw4U_0Q6joB-39" value="M" style="text;html=1;align=center;verticalAlign=middle;whiteSpace=wrap;rounded=0;fillColor=#f5f5f5;strokeColor=#666666;fontSize=14;fontColor=#333333;" parent="37Sn_1vC7pw4U_0Q6joB-1" vertex="1">
          <mxGeometry x="60" y="200" width="40" height="40" as="geometry" />
        </mxCell>
        <mxCell id="37Sn_1vC7pw4U_0Q6joB-40" value="return" style="text;html=1;align=center;verticalAlign=middle;whiteSpace=wrap;rounded=0;fontSize=10;" parent="37Sn_1vC7pw4U_0Q6joB-1" vertex="1">
          <mxGeometry x="60" y="240" width="280" height="20" as="geometry" />
        </mxCell>
        <mxCell id="37Sn_1vC7pw4U_0Q6joB-41" value="M" style="text;html=1;align=center;verticalAlign=middle;whiteSpace=wrap;rounded=0;fillColor=#f5f5f5;strokeColor=#666666;fontSize=14;fontColor=#333333;" parent="37Sn_1vC7pw4U_0Q6joB-1" vertex="1">
          <mxGeometry x="100" y="200" width="40" height="40" as="geometry" />
        </mxCell>
        <mxCell id="37Sn_1vC7pw4U_0Q6joB-42" value="M" style="text;html=1;align=center;verticalAlign=middle;whiteSpace=wrap;rounded=0;fillColor=#f5f5f5;strokeColor=#666666;fontSize=14;fontColor=#333333;" parent="37Sn_1vC7pw4U_0Q6joB-1" vertex="1">
          <mxGeometry x="140" y="200" width="40" height="40" as="geometry" />
        </mxCell>
        <mxCell id="37Sn_1vC7pw4U_0Q6joB-43" value="C" style="text;html=1;align=center;verticalAlign=middle;whiteSpace=wrap;rounded=0;fillColor=#f5f5f5;strokeColor=#666666;fontSize=14;fontColor=#333333;" parent="37Sn_1vC7pw4U_0Q6joB-1" vertex="1">
          <mxGeometry x="220" y="200" width="40" height="40" as="geometry" />
        </mxCell>
        <mxCell id="37Sn_1vC7pw4U_0Q6joB-44" value="D" style="text;html=1;align=center;verticalAlign=middle;whiteSpace=wrap;rounded=0;fillColor=#f5f5f5;strokeColor=#666666;fontSize=14;fontColor=#333333;" parent="37Sn_1vC7pw4U_0Q6joB-1" vertex="1">
          <mxGeometry x="180" y="200" width="40" height="40" as="geometry" />
        </mxCell>
        <mxCell id="R42Yw3nYAir35qv77cxx-0" value="C" style="text;html=1;align=center;verticalAlign=middle;whiteSpace=wrap;rounded=0;fillColor=#f5f5f5;strokeColor=#666666;fontSize=14;fontColor=#333333;" parent="37Sn_1vC7pw4U_0Q6joB-1" vertex="1">
          <mxGeometry x="260" y="200" width="40" height="40" as="geometry" />
        </mxCell>
        <mxCell id="R42Yw3nYAir35qv77cxx-1" value="XL" style="text;html=1;align=center;verticalAlign=middle;whiteSpace=wrap;rounded=0;fillColor=#f5f5f5;strokeColor=#666666;fontSize=14;fontColor=#333333;" parent="37Sn_1vC7pw4U_0Q6joB-1" vertex="1">
          <mxGeometry x="300" y="200" width="40" height="40" as="geometry" />
        </mxCell>
      </root>
    </mxGraphModel>
  </diagram>
  <diagram name="5" id="sz67fp2fU08byvN-RK24">
    <mxGraphModel dx="1430" dy="849" grid="1" gridSize="10" guides="1" tooltips="1" connect="1" arrows="1" fold="1" page="1" pageScale="1" pageWidth="560" pageHeight="360" math="0" shadow="0">
      <root>
        <mxCell id="L4dw9zdxUpP9TBcrMBG1-0" />
        <mxCell id="L4dw9zdxUpP9TBcrMBG1-1" parent="L4dw9zdxUpP9TBcrMBG1-0" />
        <mxCell id="L4dw9zdxUpP9TBcrMBG1-2" value="1000" style="text;html=1;align=center;verticalAlign=middle;whiteSpace=wrap;rounded=0;fillColor=#f5f5f5;strokeColor=#666666;fontSize=14;fontColor=#333333;" vertex="1" parent="L4dw9zdxUpP9TBcrMBG1-1">
          <mxGeometry x="420" y="40" width="40" height="20" as="geometry" />
        </mxCell>
        <mxCell id="L4dw9zdxUpP9TBcrMBG1-3" value="romans" style="text;html=1;align=center;verticalAlign=middle;whiteSpace=wrap;rounded=0;fontSize=10;" vertex="1" parent="L4dw9zdxUpP9TBcrMBG1-1">
          <mxGeometry x="420" y="300" width="80" height="20" as="geometry" />
        </mxCell>
        <mxCell id="L4dw9zdxUpP9TBcrMBG1-4" value="900" style="text;html=1;align=center;verticalAlign=middle;whiteSpace=wrap;rounded=0;fillColor=#f5f5f5;strokeColor=#666666;fontSize=14;fontColor=#333333;" vertex="1" parent="L4dw9zdxUpP9TBcrMBG1-1">
          <mxGeometry x="420" y="60" width="40" height="20" as="geometry" />
        </mxCell>
        <mxCell id="L4dw9zdxUpP9TBcrMBG1-5" value="500" style="text;html=1;align=center;verticalAlign=middle;whiteSpace=wrap;rounded=0;fillColor=#f5f5f5;strokeColor=#666666;fontSize=14;fontColor=#333333;" vertex="1" parent="L4dw9zdxUpP9TBcrMBG1-1">
          <mxGeometry x="420" y="80" width="40" height="20" as="geometry" />
        </mxCell>
        <mxCell id="L4dw9zdxUpP9TBcrMBG1-6" value="400" style="text;html=1;align=center;verticalAlign=middle;whiteSpace=wrap;rounded=0;fillColor=#f5f5f5;strokeColor=#666666;fontSize=14;fontColor=#333333;" vertex="1" parent="L4dw9zdxUpP9TBcrMBG1-1">
          <mxGeometry x="420" y="100" width="40" height="20" as="geometry" />
        </mxCell>
        <mxCell id="L4dw9zdxUpP9TBcrMBG1-7" value="100" style="text;html=1;align=center;verticalAlign=middle;whiteSpace=wrap;rounded=0;fillColor=#f5f5f5;strokeColor=#666666;fontSize=14;fontColor=#333333;" vertex="1" parent="L4dw9zdxUpP9TBcrMBG1-1">
          <mxGeometry x="420" y="120" width="40" height="20" as="geometry" />
        </mxCell>
        <mxCell id="L4dw9zdxUpP9TBcrMBG1-8" value="90" style="text;html=1;align=center;verticalAlign=middle;whiteSpace=wrap;rounded=0;fillColor=#f5f5f5;strokeColor=#666666;fontSize=14;fontColor=#333333;" vertex="1" parent="L4dw9zdxUpP9TBcrMBG1-1">
          <mxGeometry x="420" y="140" width="40" height="20" as="geometry" />
        </mxCell>
        <mxCell id="L4dw9zdxUpP9TBcrMBG1-9" value="50" style="text;html=1;align=center;verticalAlign=middle;whiteSpace=wrap;rounded=0;fillColor=#f5f5f5;strokeColor=#666666;fontSize=14;fontColor=#333333;" vertex="1" parent="L4dw9zdxUpP9TBcrMBG1-1">
          <mxGeometry x="420" y="160" width="40" height="20" as="geometry" />
        </mxCell>
        <mxCell id="L4dw9zdxUpP9TBcrMBG1-10" value="40" style="text;html=1;align=center;verticalAlign=middle;whiteSpace=wrap;rounded=0;fillColor=#f5f5f5;strokeColor=#666666;fontSize=14;fontColor=#333333;" vertex="1" parent="L4dw9zdxUpP9TBcrMBG1-1">
          <mxGeometry x="420" y="180" width="40" height="20" as="geometry" />
        </mxCell>
        <mxCell id="L4dw9zdxUpP9TBcrMBG1-11" value="10" style="text;html=1;align=center;verticalAlign=middle;whiteSpace=wrap;rounded=0;fillColor=#f5f5f5;strokeColor=#666666;fontSize=14;fontColor=#333333;" vertex="1" parent="L4dw9zdxUpP9TBcrMBG1-1">
          <mxGeometry x="420" y="200" width="40" height="20" as="geometry" />
        </mxCell>
        <mxCell id="L4dw9zdxUpP9TBcrMBG1-12" value="9" style="text;html=1;align=center;verticalAlign=middle;whiteSpace=wrap;rounded=0;fillColor=#dae8fc;strokeColor=#6c8ebf;fontSize=14;fontColor=#333333;" vertex="1" parent="L4dw9zdxUpP9TBcrMBG1-1">
          <mxGeometry x="420" y="220" width="40" height="20" as="geometry" />
        </mxCell>
        <mxCell id="L4dw9zdxUpP9TBcrMBG1-13" value="5" style="text;html=1;align=center;verticalAlign=middle;whiteSpace=wrap;rounded=0;fillColor=#f5f5f5;strokeColor=#666666;fontSize=14;fontColor=#333333;" vertex="1" parent="L4dw9zdxUpP9TBcrMBG1-1">
          <mxGeometry x="420" y="240" width="40" height="20" as="geometry" />
        </mxCell>
        <mxCell id="L4dw9zdxUpP9TBcrMBG1-14" value="4" style="text;html=1;align=center;verticalAlign=middle;whiteSpace=wrap;rounded=0;fillColor=#f5f5f5;strokeColor=#666666;fontSize=14;fontColor=#333333;" vertex="1" parent="L4dw9zdxUpP9TBcrMBG1-1">
          <mxGeometry x="420" y="260" width="40" height="20" as="geometry" />
        </mxCell>
        <mxCell id="L4dw9zdxUpP9TBcrMBG1-15" value="M" style="text;html=1;align=center;verticalAlign=middle;whiteSpace=wrap;rounded=0;fillColor=#f5f5f5;strokeColor=#666666;fontSize=14;fontColor=#333333;" vertex="1" parent="L4dw9zdxUpP9TBcrMBG1-1">
          <mxGeometry x="460" y="40" width="40" height="20" as="geometry" />
        </mxCell>
        <mxCell id="L4dw9zdxUpP9TBcrMBG1-16" value="CM" style="text;html=1;align=center;verticalAlign=middle;whiteSpace=wrap;rounded=0;fillColor=#f5f5f5;strokeColor=#666666;fontSize=14;fontColor=#333333;" vertex="1" parent="L4dw9zdxUpP9TBcrMBG1-1">
          <mxGeometry x="460" y="60" width="40" height="20" as="geometry" />
        </mxCell>
        <mxCell id="L4dw9zdxUpP9TBcrMBG1-17" value="D" style="text;html=1;align=center;verticalAlign=middle;whiteSpace=wrap;rounded=0;fillColor=#f5f5f5;strokeColor=#666666;fontSize=14;fontColor=#333333;" vertex="1" parent="L4dw9zdxUpP9TBcrMBG1-1">
          <mxGeometry x="460" y="80" width="40" height="20" as="geometry" />
        </mxCell>
        <mxCell id="L4dw9zdxUpP9TBcrMBG1-18" value="CD" style="text;html=1;align=center;verticalAlign=middle;whiteSpace=wrap;rounded=0;fillColor=#f5f5f5;strokeColor=#666666;fontSize=14;fontColor=#333333;" vertex="1" parent="L4dw9zdxUpP9TBcrMBG1-1">
          <mxGeometry x="460" y="100" width="40" height="20" as="geometry" />
        </mxCell>
        <mxCell id="L4dw9zdxUpP9TBcrMBG1-19" value="C" style="text;html=1;align=center;verticalAlign=middle;whiteSpace=wrap;rounded=0;fillColor=#f5f5f5;strokeColor=#666666;fontSize=14;fontColor=#333333;" vertex="1" parent="L4dw9zdxUpP9TBcrMBG1-1">
          <mxGeometry x="460" y="120" width="40" height="20" as="geometry" />
        </mxCell>
        <mxCell id="L4dw9zdxUpP9TBcrMBG1-20" value="XC" style="text;html=1;align=center;verticalAlign=middle;whiteSpace=wrap;rounded=0;fillColor=#f5f5f5;strokeColor=#666666;fontSize=14;fontColor=#333333;" vertex="1" parent="L4dw9zdxUpP9TBcrMBG1-1">
          <mxGeometry x="460" y="140" width="40" height="20" as="geometry" />
        </mxCell>
        <mxCell id="L4dw9zdxUpP9TBcrMBG1-21" value="L" style="text;html=1;align=center;verticalAlign=middle;whiteSpace=wrap;rounded=0;fillColor=#f5f5f5;strokeColor=#666666;fontSize=14;fontColor=#333333;" vertex="1" parent="L4dw9zdxUpP9TBcrMBG1-1">
          <mxGeometry x="460" y="160" width="40" height="20" as="geometry" />
        </mxCell>
        <mxCell id="POf-eHdilNUZt92_DI0b-1" style="edgeStyle=orthogonalEdgeStyle;rounded=0;orthogonalLoop=1;jettySize=auto;html=1;exitX=1;exitY=0.5;exitDx=0;exitDy=0;entryX=1;entryY=0.5;entryDx=0;entryDy=0;fillColor=#d5e8d4;strokeColor=#82b366;" edge="1" parent="L4dw9zdxUpP9TBcrMBG1-1" source="L4dw9zdxUpP9TBcrMBG1-25" target="POf-eHdilNUZt92_DI0b-0">
          <mxGeometry relative="1" as="geometry">
            <Array as="points">
              <mxPoint x="520" y="230" />
              <mxPoint x="520" y="320" />
              <mxPoint x="390" y="320" />
              <mxPoint x="390" y="220" />
            </Array>
          </mxGeometry>
        </mxCell>
        <mxCell id="L4dw9zdxUpP9TBcrMBG1-23" value="XL" style="text;html=1;align=center;verticalAlign=middle;whiteSpace=wrap;rounded=0;fillColor=#f5f5f5;strokeColor=#666666;fontSize=14;fontColor=#333333;" vertex="1" parent="L4dw9zdxUpP9TBcrMBG1-1">
          <mxGeometry x="460" y="180" width="40" height="20" as="geometry" />
        </mxCell>
        <mxCell id="L4dw9zdxUpP9TBcrMBG1-24" value="X" style="text;html=1;align=center;verticalAlign=middle;whiteSpace=wrap;rounded=0;fillColor=#f5f5f5;strokeColor=#666666;fontSize=14;fontColor=#333333;" vertex="1" parent="L4dw9zdxUpP9TBcrMBG1-1">
          <mxGeometry x="460" y="200" width="40" height="20" as="geometry" />
        </mxCell>
        <mxCell id="L4dw9zdxUpP9TBcrMBG1-25" value="IX" style="text;html=1;align=center;verticalAlign=middle;whiteSpace=wrap;rounded=0;fillColor=#d5e8d4;strokeColor=#82b366;fontSize=14;fontColor=#333333;" vertex="1" parent="L4dw9zdxUpP9TBcrMBG1-1">
          <mxGeometry x="460" y="220" width="40" height="20" as="geometry" />
        </mxCell>
        <mxCell id="L4dw9zdxUpP9TBcrMBG1-26" value="V" style="text;html=1;align=center;verticalAlign=middle;whiteSpace=wrap;rounded=0;fillColor=#f5f5f5;strokeColor=#666666;fontSize=14;fontColor=#333333;" vertex="1" parent="L4dw9zdxUpP9TBcrMBG1-1">
          <mxGeometry x="460" y="240" width="40" height="20" as="geometry" />
        </mxCell>
        <mxCell id="L4dw9zdxUpP9TBcrMBG1-27" value="IV" style="text;html=1;align=center;verticalAlign=middle;whiteSpace=wrap;rounded=0;fillColor=#f5f5f5;strokeColor=#666666;fontSize=14;fontColor=#333333;" vertex="1" parent="L4dw9zdxUpP9TBcrMBG1-1">
          <mxGeometry x="460" y="260" width="40" height="20" as="geometry" />
        </mxCell>
        <mxCell id="L4dw9zdxUpP9TBcrMBG1-28" value="1" style="text;html=1;align=center;verticalAlign=middle;whiteSpace=wrap;rounded=0;fillColor=#f5f5f5;strokeColor=#666666;fontSize=14;fontColor=#333333;" vertex="1" parent="L4dw9zdxUpP9TBcrMBG1-1">
          <mxGeometry x="420" y="280" width="40" height="20" as="geometry" />
        </mxCell>
        <mxCell id="L4dw9zdxUpP9TBcrMBG1-29" value="I" style="text;html=1;align=center;verticalAlign=middle;whiteSpace=wrap;rounded=0;fillColor=#f5f5f5;strokeColor=#666666;fontSize=14;fontColor=#333333;" vertex="1" parent="L4dw9zdxUpP9TBcrMBG1-1">
          <mxGeometry x="460" y="280" width="40" height="20" as="geometry" />
        </mxCell>
        <mxCell id="L4dw9zdxUpP9TBcrMBG1-30" style="edgeStyle=orthogonalEdgeStyle;rounded=0;orthogonalLoop=1;jettySize=auto;html=1;exitX=0.5;exitY=1;exitDx=0;exitDy=0;entryX=0.5;entryY=0;entryDx=0;entryDy=0;fillColor=#f5f5f5;strokeColor=#666666;" edge="1" parent="L4dw9zdxUpP9TBcrMBG1-1" source="L4dw9zdxUpP9TBcrMBG1-31" target="L4dw9zdxUpP9TBcrMBG1-36">
          <mxGeometry relative="1" as="geometry" />
        </mxCell>
        <mxCell id="L4dw9zdxUpP9TBcrMBG1-31" value="9" style="text;html=1;align=center;verticalAlign=middle;whiteSpace=wrap;rounded=0;fillColor=#f5f5f5;strokeColor=#666666;fontSize=14;fontColor=#333333;" vertex="1" parent="L4dw9zdxUpP9TBcrMBG1-1">
          <mxGeometry x="60" y="40" width="40" height="40" as="geometry" />
        </mxCell>
        <mxCell id="L4dw9zdxUpP9TBcrMBG1-33" value="num" style="text;html=1;align=center;verticalAlign=middle;whiteSpace=wrap;rounded=0;fontSize=10;" vertex="1" parent="L4dw9zdxUpP9TBcrMBG1-1">
          <mxGeometry x="60" y="80" width="40" height="20" as="geometry" />
        </mxCell>
        <mxCell id="L4dw9zdxUpP9TBcrMBG1-34" style="edgeStyle=orthogonalEdgeStyle;rounded=0;orthogonalLoop=1;jettySize=auto;html=1;exitX=1;exitY=0.5;exitDx=0;exitDy=0;entryX=0;entryY=0.5;entryDx=0;entryDy=0;fillColor=#dae8fc;strokeColor=#6c8ebf;" edge="1" parent="L4dw9zdxUpP9TBcrMBG1-1" source="L4dw9zdxUpP9TBcrMBG1-36" target="L4dw9zdxUpP9TBcrMBG1-12">
          <mxGeometry relative="1" as="geometry">
            <Array as="points">
              <mxPoint x="410" y="140" />
              <mxPoint x="410" y="230" />
            </Array>
          </mxGeometry>
        </mxCell>
        <mxCell id="L4dw9zdxUpP9TBcrMBG1-35" value="9-9" style="edgeStyle=orthogonalEdgeStyle;rounded=0;orthogonalLoop=1;jettySize=auto;html=1;exitX=0;exitY=0.5;exitDx=0;exitDy=0;entryX=0;entryY=0.5;entryDx=0;entryDy=0;fillColor=#dae8fc;strokeColor=#6c8ebf;" edge="1" parent="L4dw9zdxUpP9TBcrMBG1-1" source="L4dw9zdxUpP9TBcrMBG1-36" target="L4dw9zdxUpP9TBcrMBG1-31">
          <mxGeometry relative="1" as="geometry">
            <mxPoint as="offset" />
          </mxGeometry>
        </mxCell>
        <mxCell id="L4dw9zdxUpP9TBcrMBG1-36" value="9" style="text;html=1;align=center;verticalAlign=middle;whiteSpace=wrap;rounded=0;fillColor=#dae8fc;strokeColor=#6c8ebf;fontSize=14;fontColor=#333333;" vertex="1" parent="L4dw9zdxUpP9TBcrMBG1-1">
          <mxGeometry x="60" y="120" width="40" height="40" as="geometry" />
        </mxCell>
        <mxCell id="L4dw9zdxUpP9TBcrMBG1-37" value="floor" style="text;html=1;align=center;verticalAlign=middle;whiteSpace=wrap;rounded=0;fontSize=10;" vertex="1" parent="L4dw9zdxUpP9TBcrMBG1-1">
          <mxGeometry x="60" y="160" width="40" height="20" as="geometry" />
        </mxCell>
        <mxCell id="L4dw9zdxUpP9TBcrMBG1-38" value="M" style="text;html=1;align=center;verticalAlign=middle;whiteSpace=wrap;rounded=0;fillColor=#f5f5f5;strokeColor=#666666;fontSize=14;fontColor=#333333;" vertex="1" parent="L4dw9zdxUpP9TBcrMBG1-1">
          <mxGeometry x="60" y="200" width="40" height="40" as="geometry" />
        </mxCell>
        <mxCell id="L4dw9zdxUpP9TBcrMBG1-39" value="return" style="text;html=1;align=center;verticalAlign=middle;whiteSpace=wrap;rounded=0;fontSize=10;" vertex="1" parent="L4dw9zdxUpP9TBcrMBG1-1">
          <mxGeometry x="60" y="240" width="320" height="20" as="geometry" />
        </mxCell>
        <mxCell id="L4dw9zdxUpP9TBcrMBG1-40" value="M" style="text;html=1;align=center;verticalAlign=middle;whiteSpace=wrap;rounded=0;fillColor=#f5f5f5;strokeColor=#666666;fontSize=14;fontColor=#333333;" vertex="1" parent="L4dw9zdxUpP9TBcrMBG1-1">
          <mxGeometry x="100" y="200" width="40" height="40" as="geometry" />
        </mxCell>
        <mxCell id="L4dw9zdxUpP9TBcrMBG1-41" value="M" style="text;html=1;align=center;verticalAlign=middle;whiteSpace=wrap;rounded=0;fillColor=#f5f5f5;strokeColor=#666666;fontSize=14;fontColor=#333333;" vertex="1" parent="L4dw9zdxUpP9TBcrMBG1-1">
          <mxGeometry x="140" y="200" width="40" height="40" as="geometry" />
        </mxCell>
        <mxCell id="L4dw9zdxUpP9TBcrMBG1-42" value="C" style="text;html=1;align=center;verticalAlign=middle;whiteSpace=wrap;rounded=0;fillColor=#f5f5f5;strokeColor=#666666;fontSize=14;fontColor=#333333;" vertex="1" parent="L4dw9zdxUpP9TBcrMBG1-1">
          <mxGeometry x="220" y="200" width="40" height="40" as="geometry" />
        </mxCell>
        <mxCell id="L4dw9zdxUpP9TBcrMBG1-43" value="D" style="text;html=1;align=center;verticalAlign=middle;whiteSpace=wrap;rounded=0;fillColor=#f5f5f5;strokeColor=#666666;fontSize=14;fontColor=#333333;" vertex="1" parent="L4dw9zdxUpP9TBcrMBG1-1">
          <mxGeometry x="180" y="200" width="40" height="40" as="geometry" />
        </mxCell>
        <mxCell id="L4dw9zdxUpP9TBcrMBG1-44" value="C" style="text;html=1;align=center;verticalAlign=middle;whiteSpace=wrap;rounded=0;fillColor=#f5f5f5;strokeColor=#666666;fontSize=14;fontColor=#333333;" vertex="1" parent="L4dw9zdxUpP9TBcrMBG1-1">
          <mxGeometry x="260" y="200" width="40" height="40" as="geometry" />
        </mxCell>
        <mxCell id="L4dw9zdxUpP9TBcrMBG1-45" value="XL" style="text;html=1;align=center;verticalAlign=middle;whiteSpace=wrap;rounded=0;fillColor=#f5f5f5;strokeColor=#666666;fontSize=14;fontColor=#333333;" vertex="1" parent="L4dw9zdxUpP9TBcrMBG1-1">
          <mxGeometry x="300" y="200" width="40" height="40" as="geometry" />
        </mxCell>
        <mxCell id="POf-eHdilNUZt92_DI0b-0" value="IX" style="text;html=1;align=center;verticalAlign=middle;whiteSpace=wrap;rounded=0;fillColor=#d5e8d4;strokeColor=#82b366;fontSize=14;fontColor=#333333;" vertex="1" parent="L4dw9zdxUpP9TBcrMBG1-1">
          <mxGeometry x="340" y="200" width="40" height="40" as="geometry" />
        </mxCell>
      </root>
    </mxGraphModel>
  </diagram>
</mxfile>
